<?plantuml 1.2026.2?><svg xmlns="http://www.w3.org/2000/svg" xmlns:xlink="http://www.w3.org/1999/xlink" contentStyleType="text/css" data-diagram-type="CLASS" height="811px" preserveAspectRatio="none" style="width:553px;height:811px;background:#FFFFFF;" version="1.1" viewBox="0 0 553 811" width="553px" zoomAndPan="magnify"><title>Data model &#8212; state and artifacts</title><defs/><g><g class="title" data-source-line="1"><text fill="#000000" font-family="sans-serif" font-size="14" font-weight="bold" lengthAdjust="spacing" textLength="237.1523" x="150.9862" y="23.5352">Data model &#8212; state and artifacts</text></g><!--class WorkflowJson--><g class="entity" data-qualified-name="WorkflowJson" data-source-line="2" id="ent0002"><rect fill="#F1F1F1" height="229.3711" rx="2.5" ry="2.5" style="stroke:#181818;stroke-width:0.5;" width="226.3613" x="141.23" y="44.4883"/><ellipse cx="204.2368" cy="60.4883" fill="#ADD1B2" rx="11" ry="11" style="stroke:#181818;stroke-width:1;"/><path d="M206.71,66.6313 Q206.1289,66.9302 205.4898,67.0796 Q204.8506,67.229 204.145,67.229 Q201.6382,67.229 200.3184,65.5771 Q198.9986,63.9253 198.9986,60.8042 Q198.9986,57.6748 200.3184,56.0229 Q201.6382,54.3711 204.145,54.3711 Q204.8506,54.3711 205.4981,54.5205 Q206.1455,54.6699 206.71,54.9688 L206.71,57.6914 Q206.0791,57.1104 205.4856,56.8406 Q204.8921,56.5708 204.2613,56.5708 Q202.9165,56.5708 202.2317,57.6375 Q201.5469,58.7041 201.5469,60.8042 Q201.5469,62.896 202.2317,63.9626 Q202.9165,65.0293 204.2613,65.0293 Q204.8921,65.0293 205.4856,64.7595 Q206.0791,64.4897 206.71,63.9087 Z " fill="#000000"/><text fill="#000000" font-family="sans-serif" font-size="14" lengthAdjust="spacing" textLength="91.8477" x="224.7368" y="65.7793">WorkflowJson</text><line style="stroke:#181818;stroke-width:0.5;" x1="142.23" x2="366.5913" y1="76.4883" y2="76.4883"/><g data-visibility-modifier="PUBLIC_FIELD"><ellipse cx="152.23" cy="90.2324" fill="none" rx="3" ry="3" style="stroke:#038048;stroke-width:1;"/></g><text fill="#000000" font-family="sans-serif" font-size="14" lengthAdjust="spacing" textLength="99.627" x="161.23" y="94.0234">request: string</text><g data-visibility-modifier="PUBLIC_FIELD"><ellipse cx="152.23" cy="106.7207" fill="none" rx="3" ry="3" style="stroke:#038048;stroke-width:1;"/></g><text fill="#000000" font-family="sans-serif" font-size="14" lengthAdjust="spacing" textLength="77.0273" x="161.23" y="110.5117">slug: string</text><g data-visibility-modifier="PUBLIC_FIELD"><ellipse cx="152.23" cy="123.209" fill="none" rx="3" ry="3" style="stroke:#038048;stroke-width:1;"/></g><text fill="#000000" font-family="sans-serif" font-size="14" lengthAdjust="spacing" textLength="102.334" x="161.23" y="127">track_id: string</text><g data-visibility-modifier="PUBLIC_FIELD"><ellipse cx="152.23" cy="139.6973" fill="none" rx="3" ry="3" style="stroke:#038048;stroke-width:1;"/></g><text fill="#000000" font-family="sans-serif" font-size="14" lengthAdjust="spacing" textLength="131.4072" x="161.23" y="143.4883">exceptions: string[]</text><g data-visibility-modifier="PUBLIC_FIELD"><ellipse cx="152.23" cy="156.1855" fill="none" rx="3" ry="3" style="stroke:#038048;stroke-width:1;"/></g><text fill="#000000" font-family="sans-serif" font-size="14" lengthAdjust="spacing" textLength="128.8779" x="161.23" y="159.9766">completed: string[]</text><g data-visibility-modifier="PUBLIC_FIELD"><ellipse cx="152.23" cy="172.6738" fill="none" rx="3" ry="3" style="stroke:#038048;stroke-width:1;"/></g><text fill="#000000" font-family="sans-serif" font-size="14" lengthAdjust="spacing" textLength="185.2676" x="161.23" y="176.4648">skipped_alternates: string[]</text><g data-visibility-modifier="PUBLIC_FIELD"><ellipse cx="152.23" cy="189.1621" fill="none" rx="3" ry="3" style="stroke:#038048;stroke-width:1;"/></g><text fill="#000000" font-family="sans-serif" font-size="14" lengthAdjust="spacing" textLength="200.3613" x="161.23" y="192.9531">source_backlog_keys: string[]</text><g data-visibility-modifier="PUBLIC_FIELD"><ellipse cx="152.23" cy="205.6504" fill="none" rx="3" ry="3" style="stroke:#038048;stroke-width:1;"/></g><text fill="#000000" font-family="sans-serif" font-size="14" lengthAdjust="spacing" textLength="195.248" x="161.23" y="209.4414">skip_brainstorm: bool &#171;new&#187;</text><g data-visibility-modifier="PUBLIC_FIELD"><ellipse cx="152.23" cy="222.1387" fill="none" rx="3" ry="3" style="stroke:#038048;stroke-width:1;"/></g><text fill="#000000" font-family="sans-serif" font-size="14" lengthAdjust="spacing" textLength="191.5566" x="161.23" y="225.9297">codesign_mode: bool &#171;new&#187;</text><g data-visibility-modifier="PUBLIC_FIELD"><ellipse cx="152.23" cy="238.627" fill="none" rx="3" ry="3" style="stroke:#038048;stroke-width:1;"/></g><text fill="#000000" font-family="sans-serif" font-size="14" lengthAdjust="spacing" textLength="97.0771" x="161.23" y="242.418">created_at: int</text><g data-visibility-modifier="PUBLIC_FIELD"><ellipse cx="152.23" cy="255.1152" fill="none" rx="3" ry="3" style="stroke:#038048;stroke-width:1;"/></g><text fill="#000000" font-family="sans-serif" font-size="14" lengthAdjust="spacing" textLength="102.6895" x="161.23" y="258.9063">updated_at: int</text><line style="stroke:#181818;stroke-width:0.5;" x1="142.23" x2="366.5913" y1="265.8594" y2="265.8594"/></g><!--class BrainstormState--><g class="entity" data-qualified-name="BrainstormState" data-source-line="15" id="ent0003"><rect fill="#F1F1F1" height="196.3945" rx="2.5" ry="2.5" style="stroke:#181818;stroke-width:0.5;" width="222.8271" x="7" y="350.8583"/><ellipse cx="60.3818" cy="366.8583" fill="#ADD1B2" rx="11" ry="11" style="stroke:#181818;stroke-width:1;"/><path d="M62.855,373.0013 Q62.2739,373.3002 61.6348,373.4496 Q60.9956,373.599 60.29,373.599 Q57.7832,373.599 56.4634,371.9471 Q55.1436,370.2953 55.1436,367.1742 Q55.1436,364.0448 56.4634,362.3929 Q57.7832,360.7411 60.29,360.7411 Q60.9956,360.7411 61.6431,360.8905 Q62.2905,361.0399 62.855,361.3387 L62.855,364.0614 Q62.2241,363.4804 61.6306,363.2106 Q61.0371,362.9408 60.4063,362.9408 Q59.0615,362.9408 58.3767,364.0075 Q57.6919,365.0741 57.6919,367.1742 Q57.6919,369.266 58.3767,370.3326 Q59.0615,371.3993 60.4063,371.3993 Q61.0371,371.3993 61.6306,371.1295 Q62.2241,370.8597 62.855,370.2787 Z " fill="#000000"/><text fill="#000000" font-family="sans-serif" font-size="14" lengthAdjust="spacing" textLength="107.5635" x="80.8818" y="372.1493">BrainstormState</text><line style="stroke:#181818;stroke-width:0.5;" x1="8" x2="228.8271" y1="382.8583" y2="382.8583"/><g data-visibility-modifier="PUBLIC_FIELD"><ellipse cx="18" cy="396.6024" fill="none" rx="3" ry="3" style="stroke:#038048;stroke-width:1;"/></g><text fill="#000000" font-family="sans-serif" font-size="14" lengthAdjust="spacing" textLength="113.1211" x="27" y="400.3934">slug: string &#171;pk&#187;</text><g data-visibility-modifier="PUBLIC_FIELD"><ellipse cx="18" cy="413.0907" fill="none" rx="3" ry="3" style="stroke:#038048;stroke-width:1;"/></g><text fill="#000000" font-family="sans-serif" font-size="14" lengthAdjust="spacing" textLength="94.4795" x="27" y="416.8817">started_at: int</text><g data-visibility-modifier="PUBLIC_FIELD"><ellipse cx="18" cy="429.579" fill="none" rx="3" ry="3" style="stroke:#038048;stroke-width:1;"/></g><text fill="#000000" font-family="sans-serif" font-size="14" lengthAdjust="spacing" textLength="99.627" x="27" y="433.37">request: string</text><g data-visibility-modifier="PUBLIC_FIELD"><ellipse cx="18" cy="446.0673" fill="none" rx="3" ry="3" style="stroke:#038048;stroke-width:1;"/></g><text fill="#000000" font-family="sans-serif" font-size="14" lengthAdjust="spacing" textLength="140.0547" x="27" y="449.8583">calling_phase: string</text><g data-visibility-modifier="PUBLIC_FIELD"><ellipse cx="18" cy="462.5555" fill="none" rx="3" ry="3" style="stroke:#038048;stroke-width:1;"/></g><text fill="#000000" font-family="sans-serif" font-size="14" lengthAdjust="spacing" textLength="63.4648" x="27" y="466.3466">stage: int</text><g data-visibility-modifier="PUBLIC_FIELD"><ellipse cx="18" cy="479.0438" fill="none" rx="3" ry="3" style="stroke:#038048;stroke-width:1;"/></g><text fill="#000000" font-family="sans-serif" font-size="14" lengthAdjust="spacing" textLength="89.9404" x="27" y="482.8348">gaps: string[]</text><g data-visibility-modifier="PUBLIC_FIELD"><ellipse cx="18" cy="495.5321" fill="none" rx="3" ry="3" style="stroke:#038048;stroke-width:1;"/></g><text fill="#000000" font-family="sans-serif" font-size="14" lengthAdjust="spacing" textLength="160.7744" x="27" y="499.3231">dialogue_turns: object[]</text><g data-visibility-modifier="PUBLIC_FIELD"><ellipse cx="18" cy="512.0204" fill="none" rx="3" ry="3" style="stroke:#038048;stroke-width:1;"/></g><text fill="#000000" font-family="sans-serif" font-size="14" lengthAdjust="spacing" textLength="196.8271" x="27" y="515.8114">discipline_violations: object[]</text><g data-visibility-modifier="PUBLIC_FIELD"><ellipse cx="18" cy="528.5087" fill="none" rx="3" ry="3" style="stroke:#038048;stroke-width:1;"/></g><text fill="#000000" font-family="sans-serif" font-size="14" lengthAdjust="spacing" textLength="118.2275" x="27" y="532.2997">final_state: string</text><line style="stroke:#181818;stroke-width:0.5;" x1="8" x2="228.8271" y1="539.2528" y2="539.2528"/></g><!--class BriefDoc--><g class="entity" data-qualified-name="BriefDoc" data-source-line="26" id="ent0004"><rect fill="#F1F1F1" height="179.9063" rx="2.5" ry="2.5" style="stroke:#181818;stroke-width:0.5;" width="199.9063" x="15.46" y="624.2483"/><ellipse cx="82.647" cy="640.2483" fill="#ADD1B2" rx="11" ry="11" style="stroke:#181818;stroke-width:1;"/><path d="M85.1202,646.3913 Q84.5391,646.6902 83.8999,646.8396 Q83.2608,646.989 82.5552,646.989 Q80.0484,646.989 78.7286,645.3371 Q77.4087,643.6853 77.4087,640.5642 Q77.4087,637.4348 78.7286,635.7829 Q80.0484,634.1311 82.5552,634.1311 Q83.2608,634.1311 83.9082,634.2805 Q84.5557,634.4299 85.1202,634.7288 L85.1202,637.4514 Q84.4893,636.8704 83.8958,636.6006 Q83.3023,636.3308 82.6714,636.3308 Q81.3267,636.3308 80.6419,637.3975 Q79.9571,638.4641 79.9571,640.5642 Q79.9571,642.656 80.6419,643.7226 Q81.3267,644.7893 82.6714,644.7893 Q83.3023,644.7893 83.8958,644.5195 Q84.4893,644.2497 85.1202,643.6687 Z " fill="#000000"/><text fill="#000000" font-family="sans-serif" font-size="14" lengthAdjust="spacing" textLength="57.0322" x="103.147" y="645.5393">BriefDoc</text><line style="stroke:#181818;stroke-width:0.5;" x1="16.46" x2="214.3663" y1="656.2483" y2="656.2483"/><g data-visibility-modifier="PUBLIC_FIELD"><ellipse cx="26.46" cy="669.9924" fill="none" rx="3" ry="3" style="stroke:#038048;stroke-width:1;"/></g><text fill="#000000" font-family="sans-serif" font-size="14" lengthAdjust="spacing" textLength="114.9873" x="35.46" y="673.7834">path: string &#171;pk&#187;</text><g data-visibility-modifier="PUBLIC_FIELD"><ellipse cx="26.46" cy="686.4807" fill="none" rx="3" ry="3" style="stroke:#038048;stroke-width:1;"/></g><text fill="#000000" font-family="sans-serif" font-size="14" lengthAdjust="spacing" textLength="82.8926" x="35.46" y="690.2717">actor: string</text><g data-visibility-modifier="PUBLIC_FIELD"><ellipse cx="26.46" cy="702.969" fill="none" rx="3" ry="3" style="stroke:#038048;stroke-width:1;"/></g><text fill="#000000" font-family="sans-serif" font-size="14" lengthAdjust="spacing" textLength="94.4248" x="35.46" y="706.76">trigger: string</text><g data-visibility-modifier="PUBLIC_FIELD"><ellipse cx="26.46" cy="719.4573" fill="none" rx="3" ry="3" style="stroke:#038048;stroke-width:1;"/></g><text fill="#000000" font-family="sans-serif" font-size="14" lengthAdjust="spacing" textLength="137.6074" x="35.46" y="723.2483">current_state: string</text><g data-visibility-modifier="PUBLIC_FIELD"><ellipse cx="26.46" cy="735.9455" fill="none" rx="3" ry="3" style="stroke:#038048;stroke-width:1;"/></g><text fill="#000000" font-family="sans-serif" font-size="14" lengthAdjust="spacing" textLength="138.7012" x="35.46" y="739.7366">desired_state: string</text><g data-visibility-modifier="PUBLIC_FIELD"><ellipse cx="26.46" cy="752.4338" fill="none" rx="3" ry="3" style="stroke:#038048;stroke-width:1;"/></g><text fill="#000000" font-family="sans-serif" font-size="14" lengthAdjust="spacing" textLength="126.752" x="35.46" y="756.2248">non_goals: string[]</text><g data-visibility-modifier="PUBLIC_FIELD"><ellipse cx="26.46" cy="768.9221" fill="none" rx="3" ry="3" style="stroke:#038048;stroke-width:1;"/></g><text fill="#000000" font-family="sans-serif" font-size="14" lengthAdjust="spacing" textLength="173.9063" x="35.46" y="772.7131">solution_leakage: object[]</text><g data-visibility-modifier="PUBLIC_FIELD"><ellipse cx="26.46" cy="785.4104" fill="none" rx="3" ry="3" style="stroke:#038048;stroke-width:1;"/></g><text fill="#000000" font-family="sans-serif" font-size="14" lengthAdjust="spacing" textLength="164.5752" x="35.46" y="789.2014">open_questions: string[]</text><line style="stroke:#181818;stroke-width:0.5;" x1="16.46" x2="214.3663" y1="796.1545" y2="796.1545"/></g><!--class CodesignState--><g class="entity" data-qualified-name="CodesignState" data-source-line="36" id="ent0005"><rect fill="#F1F1F1" height="130.4414" rx="2.5" ry="2.5" style="stroke:#181818;stroke-width:0.5;" width="251.1553" x="269.84" y="383.8383"/><ellipse cx="342.6462" cy="399.8383" fill="#ADD1B2" rx="11" ry="11" style="stroke:#181818;stroke-width:1;"/><path d="M345.1193,405.9813 Q344.5382,406.2802 343.8991,406.4296 Q343.2599,406.579 342.5544,406.579 Q340.0475,406.579 338.7277,404.9271 Q337.4079,403.2753 337.4079,400.1542 Q337.4079,397.0248 338.7277,395.3729 Q340.0475,393.7211 342.5544,393.7211 Q343.2599,393.7211 343.9074,393.8705 Q344.5548,394.0199 345.1193,394.3187 L345.1193,397.0414 Q344.4884,396.4604 343.8949,396.1906 Q343.3014,395.9208 342.6706,395.9208 Q341.3258,395.9208 340.641,396.9875 Q339.9562,398.0541 339.9562,400.1542 Q339.9562,402.246 340.641,403.3126 Q341.3258,404.3793 342.6706,404.3793 Q343.3014,404.3793 343.8949,404.1095 Q344.4884,403.8397 345.1193,403.2587 Z " fill="#000000"/><text fill="#000000" font-family="sans-serif" font-size="14" lengthAdjust="spacing" textLength="97.043" x="363.1462" y="405.1293">CodesignState</text><line style="stroke:#181818;stroke-width:0.5;" x1="270.84" x2="519.9953" y1="415.8383" y2="415.8383"/><g data-visibility-modifier="PUBLIC_FIELD"><ellipse cx="280.84" cy="429.5824" fill="none" rx="3" ry="3" style="stroke:#038048;stroke-width:1;"/></g><text fill="#000000" font-family="sans-serif" font-size="14" lengthAdjust="spacing" textLength="113.1211" x="289.84" y="433.3734">slug: string &#171;pk&#187;</text><g data-visibility-modifier="PUBLIC_FIELD"><ellipse cx="280.84" cy="446.0707" fill="none" rx="3" ry="3" style="stroke:#038048;stroke-width:1;"/></g><text fill="#000000" font-family="sans-serif" font-size="14" lengthAdjust="spacing" textLength="97.0771" x="289.84" y="449.8617">created_at: int</text><g data-visibility-modifier="PUBLIC_FIELD"><ellipse cx="280.84" cy="462.559" fill="none" rx="3" ry="3" style="stroke:#038048;stroke-width:1;"/></g><text fill="#000000" font-family="sans-serif" font-size="14" lengthAdjust="spacing" textLength="123.2793" x="289.84" y="466.35">decisions: object[]</text><g data-visibility-modifier="PUBLIC_FIELD"><ellipse cx="280.84" cy="479.0473" fill="none" rx="3" ry="3" style="stroke:#038048;stroke-width:1;"/></g><text fill="#000000" font-family="sans-serif" font-size="14" lengthAdjust="spacing" textLength="225.1553" x="289.84" y="482.8383">revisit_context: object &#171;optional&#187;</text><g data-visibility-modifier="PUBLIC_FIELD"><ellipse cx="280.84" cy="495.5355" fill="none" rx="3" ry="3" style="stroke:#038048;stroke-width:1;"/></g><text fill="#000000" font-family="sans-serif" font-size="14" lengthAdjust="spacing" textLength="113.4561" x="289.84" y="499.3266">revisit_count: int</text><line style="stroke:#181818;stroke-width:0.5;" x1="270.84" x2="519.9953" y1="506.2797" y2="506.2797"/></g><!--class SpecDocDecision--><g class="entity" data-qualified-name="SpecDocDecision" data-source-line="43" id="ent0006"><rect fill="#F1F1F1" height="146.9297" rx="2.5" ry="2.5" style="stroke:#181818;stroke-width:0.5;" width="295.4248" x="250.7" y="640.7383"/><ellipse cx="336.3851" cy="656.7383" fill="#ADD1B2" rx="11" ry="11" style="stroke:#181818;stroke-width:1;"/><path d="M338.8582,662.8813 Q338.2771,663.1802 337.638,663.3296 Q336.9988,663.479 336.2933,663.479 Q333.7864,663.479 332.4666,661.8271 Q331.1468,660.1753 331.1468,657.0542 Q331.1468,653.9248 332.4666,652.2729 Q333.7864,650.6211 336.2933,650.6211 Q336.9988,650.6211 337.6463,650.7705 Q338.2938,650.9199 338.8582,651.2188 L338.8582,653.9414 Q338.2273,653.3604 337.6338,653.0906 Q337.0403,652.8208 336.4095,652.8208 Q335.0647,652.8208 334.3799,653.8875 Q333.6951,654.9541 333.6951,657.0542 Q333.6951,659.146 334.3799,660.2126 Q335.0647,661.2793 336.4095,661.2793 Q337.0403,661.2793 337.6338,661.0095 Q338.2273,660.7397 338.8582,660.1587 Z " fill="#000000"/><text fill="#000000" font-family="sans-serif" font-size="14" lengthAdjust="spacing" textLength="115.5547" x="356.8851" y="662.0293">SpecDocDecision</text><line style="stroke:#181818;stroke-width:0.5;" x1="251.7" x2="545.1248" y1="672.7383" y2="672.7383"/><g data-visibility-modifier="PUBLIC_FIELD"><ellipse cx="261.7" cy="686.4824" fill="none" rx="3" ry="3" style="stroke:#038048;stroke-width:1;"/></g><text fill="#000000" font-family="sans-serif" font-size="14" lengthAdjust="spacing" textLength="97.3779" x="270.7" y="690.2734">id: string &#171;pk&#187;</text><g data-visibility-modifier="PUBLIC_FIELD"><ellipse cx="261.7" cy="702.9707" fill="none" rx="3" ry="3" style="stroke:#038048;stroke-width:1;"/></g><text fill="#000000" font-family="sans-serif" font-size="14" lengthAdjust="spacing" textLength="85.7158" x="270.7" y="706.7617">name: string</text><g data-visibility-modifier="PUBLIC_FIELD"><ellipse cx="261.7" cy="719.459" fill="none" rx="3" ry="3" style="stroke:#038048;stroke-width:1;"/></g><text fill="#000000" font-family="sans-serif" font-size="14" lengthAdjust="spacing" textLength="190.2441" x="270.7" y="723.25">options_considered: string[]</text><g data-visibility-modifier="PUBLIC_FIELD"><ellipse cx="261.7" cy="735.9473" fill="none" rx="3" ry="3" style="stroke:#038048;stroke-width:1;"/></g><text fill="#000000" font-family="sans-serif" font-size="14" lengthAdjust="spacing" textLength="96.5098" x="270.7" y="739.7383">chosen: string</text><g data-visibility-modifier="PUBLIC_FIELD"><ellipse cx="261.7" cy="752.4355" fill="none" rx="3" ry="3" style="stroke:#038048;stroke-width:1;"/></g><text fill="#000000" font-family="sans-serif" font-size="14" lengthAdjust="spacing" textLength="269.4248" x="270.7" y="756.2266">engineer_verbatim: string &#171;blockquote&#187;</text><g data-visibility-modifier="PUBLIC_FIELD"><ellipse cx="261.7" cy="768.9238" fill="none" rx="3" ry="3" style="stroke:#038048;stroke-width:1;"/></g><text fill="#000000" font-family="sans-serif" font-size="14" lengthAdjust="spacing" textLength="213.2676" x="270.7" y="772.7148">dismissed_alternatives: object[]</text><line style="stroke:#181818;stroke-width:0.5;" x1="251.7" x2="545.1248" y1="779.668" y2="779.668"/></g><!--link WorkflowJson to BrainstormState--><g class="link" data-entity-1="ent0002" data-entity-2="ent0003" data-link-type="association" data-source-line="51" id="lnk7"><path codeLine="51" d="M200.66,273.9483 C188.71,299.2583 176.14,325.8583 164.53,350.4483" fill="none" id="WorkflowJson-BrainstormState" style="stroke:#181818;stroke-width:1;"/><text fill="#000000" font-family="sans-serif" font-size="13" lengthAdjust="spacing" textLength="26.5586" x="187.41" y="317.4266">slug</text><text fill="#000000" font-family="sans-serif" font-size="13" lengthAdjust="spacing" textLength="8.2202" x="188.9674" y="294.3598">1</text><text fill="#000000" font-family="sans-serif" font-size="13" lengthAdjust="spacing" textLength="24.667" x="143.0599" y="340.2358">0..1</text></g><!--link WorkflowJson to CodesignState--><g class="link" data-entity-1="ent0002" data-entity-2="ent0005" data-link-type="association" data-source-line="52" id="lnk8"><path codeLine="52" d="M310.14,273.9483 C328.38,311.1983 348.01,351.2683 363.83,383.5683" fill="none" id="WorkflowJson-CodesignState" style="stroke:#181818;stroke-width:1;"/><text fill="#000000" font-family="sans-serif" font-size="13" lengthAdjust="spacing" textLength="26.5586" x="330.14" y="317.4266">slug</text><text fill="#000000" font-family="sans-serif" font-size="13" lengthAdjust="spacing" textLength="8.2202" x="305.461" y="294.3598">1</text><text fill="#000000" font-family="sans-serif" font-size="13" lengthAdjust="spacing" textLength="24.667" x="335.0991" y="373.1703">0..1</text></g><!--link BrainstormState to BriefDoc--><g class="link" data-entity-1="ent0003" data-entity-2="ent0004" data-link-type="association" data-source-line="53" id="lnk9"><path codeLine="53" d="M117.3,547.6683 C117.02,572.6783 116.71,599.4483 116.43,624.0183" fill="none" id="BrainstormState-BriefDoc" style="stroke:#181818;stroke-width:1;"/><text fill="#000000" font-family="sans-serif" font-size="13" lengthAdjust="spacing" textLength="58.2651" x="117.91" y="590.8166">produces</text><text fill="#000000" font-family="sans-serif" font-size="13" lengthAdjust="spacing" textLength="8.2202" x="108.9482" y="567.7086">1</text><text fill="#000000" font-family="sans-serif" font-size="13" lengthAdjust="spacing" textLength="8.2202" x="108.1921" y="613.5101">1</text></g><!--reverse link CodesignState to SpecDocDecision--><g class="link" data-entity-1="ent0005" data-entity-2="ent0006" data-link-type="composition" data-source-line="54" id="lnk10"><path codeLine="54" d="M396.2888,526.7675 C396.7288,564.8075 397.13,601.0183 397.58,640.3883" fill="none" id="CodesignState-backto-SpecDocDecision" style="stroke:#181818;stroke-width:1;"/><polygon fill="#181818" points="396.15,514.7683,392.2197,520.8141,396.2888,526.7675,400.2191,520.7216,396.15,514.7683" style="stroke:#181818;stroke-width:1;"/><text fill="#000000" font-family="sans-serif" font-size="13" lengthAdjust="spacing" textLength="67.3613" x="398" y="590.8166">decisions[]</text><text fill="#000000" font-family="sans-serif" font-size="13" lengthAdjust="spacing" textLength="8.2202" x="387.8244" y="534.9024">1</text><text fill="#000000" font-family="sans-serif" font-size="13" lengthAdjust="spacing" textLength="34.1758" x="361.8333" y="629.9675">many</text></g><?plantuml-src XLJBRXin3BpxAmGVMoHehqQGGvjJhpdq40G2LwBNwcf5HQAS1460VaI_i5zIxiFsxjfeRckAd267GxDZZ-eE65HB5htw-_kFoWoC2e9LaDXjmN1U6Gyvgv-Kcgsdvn-PWdfRAVKvuLF1p1ifIYxKNIZxKaz_SmBJQ6UdCNmn6DbHo8VemsCNDzH6Zuns7iwDYn6j1i-OWdItACjKaa5T2P6dMZVuciy1T9N0XSoKsesgYBowkGduV7ix45lChWwwa-72Sq9XbGPaKXUu2vLePw7tKQDlHvRxNiUtfIQ26vi1LfHE2zWBWXhmNZvrt476cT8CDHuhQuYBgQq3aQEWvf8wfQdwXOOFRzcuABYezuuyZCkOfcnT0AzxDnnPJrCwtDwH6SQBmBiBuubpACsjuEeQPo5JKiB02vgkGTb74ctE7W85NHFuCm_uqWsXFKBJwpATXI86tIkxCDrXeE-Z0JvUsWKlM3GkdmkOS2zXreO2umiV7WMBUlE37n1FUIKit7GVqOZCToF1qDZfbYPj1MXdCWqKkIFFpc9QtfJPKSOmEyfGYnqmwJscIWpHJbWgJwPvAiGui8bzMfVpv2RT7gVZlwzcVnRhhsjrTQNMNwwlvMjv8q8aMl-lOhwUCNy9SoZf6KP_RbHCP8l1l9fZT5cVkkmMmklwJEYDEYxruV4V?></g></svg>