<?plantuml 1.2026.2?><svg xmlns="http://www.w3.org/2000/svg" xmlns:xlink="http://www.w3.org/1999/xlink" contentStyleType="text/css" data-diagram-type="SEQUENCE" height="629px" preserveAspectRatio="none" style="width:738px;height:629px;background:#FFFFFF;" version="1.1" viewBox="0 0 738 629" width="738px" zoomAndPan="magnify"><title>Behavior #2 &#8212; Stage 2 dialogue discipline</title><defs/><g><text fill="#000000" font-family="sans-serif" font-size="14" font-weight="bold" lengthAdjust="spacing" textLength="303.0576" x="219.4075" y="28.5352">Behavior #2 &#8212; Stage 2 dialogue discipline</text><rect fill="none" height="353.3711" style="stroke:#000000;stroke-width:1.5;" width="722.8726" x="10" y="135.9766"/><rect fill="none" height="250.4395" style="stroke:#000000;stroke-width:1.5;" width="702.8726" x="20" y="231.9082"/><g class="participant-lifeline" data-entity-uid="part1" data-qualified-name="Engineer" id="part1-lifeline"><g><title>Engineer</title><rect fill="#000000" fill-opacity="0.00000" height="429.6816" width="8" x="58.5347" y="118.9766"/><line style="stroke:#181818;stroke-width:0.5;stroke-dasharray:5,5;" x1="62" x2="62" y1="118.9766" y2="548.6582"/></g></g><g class="participant-lifeline" data-entity-uid="part2" data-qualified-name="S2" id="part2-lifeline"><g><title>Stage 2. probe-loop</title><rect fill="#000000" fill-opacity="0.00000" height="429.6816" width="8" x="176.6133" y="118.9766"/><line style="stroke:#181818;stroke-width:0.5;stroke-dasharray:5,5;" x1="180.0693" x2="180.0693" y1="118.9766" y2="548.6582"/></g></g><g class="participant-lifeline" data-entity-uid="part3" data-qualified-name="Disc" id="part3-lifeline"><g><title>discipline-assertor</title><rect fill="#000000" fill-opacity="0.00000" height="429.6816" width="8" x="497.5542" y="118.9766"/><line style="stroke:#181818;stroke-width:0.5;stroke-dasharray:5,5;" x1="500.6519" x2="500.6519" y1="118.9766" y2="548.6582"/></g></g><g class="participant-lifeline" data-entity-uid="part4" data-qualified-name="Q" id="part4-lifeline"><g><title>AskUserQuestion</title><rect fill="#000000" fill-opacity="0.00000" height="429.6816" width="8" x="643.6646" y="118.9766"/><line style="stroke:#181818;stroke-width:0.5;stroke-dasharray:5,5;" x1="647.4565" x2="647.4565" y1="118.9766" y2="548.6582"/></g></g><g class="participant participant-head" data-entity-uid="part1" data-qualified-name="Engineer" id="part1-head"><text fill="#000000" font-family="sans-serif" font-size="14" lengthAdjust="spacing" textLength="59.0693" x="30" y="116.0234">Engineer</text><ellipse cx="62.5347" cy="50.9883" fill="#E2E2F0" rx="8" ry="8" style="stroke:#181818;stroke-width:0.5;"/><path d="M62.5347,58.9883 L62.5347,85.9883 M49.5347,66.9883 L75.5347,66.9883 M62.5347,85.9883 L49.5347,100.9883 M62.5347,85.9883 L75.5347,100.9883" fill="none" style="stroke:#181818;stroke-width:0.5;"/></g><g class="participant participant-tail" data-entity-uid="part1" data-qualified-name="Engineer" id="part1-tail"><text fill="#000000" font-family="sans-serif" font-size="14" lengthAdjust="spacing" textLength="59.0693" x="30" y="561.1934">Engineer</text><ellipse cx="62.5347" cy="572.6465" fill="#E2E2F0" rx="8" ry="8" style="stroke:#181818;stroke-width:0.5;"/><path d="M62.5347,580.6465 L62.5347,607.6465 M49.5347,588.6465 L75.5347,588.6465 M62.5347,607.6465 L49.5347,622.6465 M62.5347,607.6465 L75.5347,622.6465" fill="none" style="stroke:#181818;stroke-width:0.5;"/></g><g class="participant participant-head" data-entity-uid="part2" data-qualified-name="S2" id="part2-head"><rect fill="#E2E2F0" height="30.4883" rx="2.5" ry="2.5" style="stroke:#181818;stroke-width:0.5;" width="151.0879" x="105.0693" y="87.4883"/><text fill="#000000" font-family="sans-serif" font-size="14" lengthAdjust="spacing" textLength="137.0879" x="112.0693" y="108.0234">Stage 2: probe-loop</text></g><g class="participant participant-tail" data-entity-uid="part2" data-qualified-name="S2" id="part2-tail"><rect fill="#E2E2F0" height="30.4883" rx="2.5" ry="2.5" style="stroke:#181818;stroke-width:0.5;" width="151.0879" x="105.0693" y="547.6582"/><text fill="#000000" font-family="sans-serif" font-size="14" lengthAdjust="spacing" textLength="137.0879" x="112.0693" y="568.1934">Stage 2: probe-loop</text></g><g class="participant participant-head" data-entity-uid="part3" data-qualified-name="Disc" id="part3-head"><rect fill="#E2E2F0" height="30.4883" rx="2.5" ry="2.5" style="stroke:#181818;stroke-width:0.5;" width="141.8047" x="430.6519" y="87.4883"/><text fill="#000000" font-family="sans-serif" font-size="14" lengthAdjust="spacing" textLength="127.8047" x="437.6519" y="108.0234">discipline-assertor</text></g><g class="participant participant-tail" data-entity-uid="part3" data-qualified-name="Disc" id="part3-tail"><rect fill="#E2E2F0" height="30.4883" rx="2.5" ry="2.5" style="stroke:#181818;stroke-width:0.5;" width="141.8047" x="430.6519" y="547.6582"/><text fill="#000000" font-family="sans-serif" font-size="14" lengthAdjust="spacing" textLength="127.8047" x="437.6519" y="568.1934">discipline-assertor</text></g><g class="participant participant-head" data-entity-uid="part4" data-qualified-name="Q" id="part4-head"><rect fill="#E2E2F0" height="30.4883" rx="2.5" ry="2.5" style="stroke:#181818;stroke-width:0.5;" width="130.416" x="582.4565" y="87.4883"/><text fill="#000000" font-family="sans-serif" font-size="14" lengthAdjust="spacing" textLength="116.416" x="589.4565" y="108.0234">AskUserQuestion</text></g><g class="participant participant-tail" data-entity-uid="part4" data-qualified-name="Q" id="part4-tail"><rect fill="#E2E2F0" height="30.4883" rx="2.5" ry="2.5" style="stroke:#181818;stroke-width:0.5;" width="130.416" x="582.4565" y="547.6582"/><text fill="#000000" font-family="sans-serif" font-size="14" lengthAdjust="spacing" textLength="116.416" x="589.4565" y="568.1934">AskUserQuestion</text></g><path d="M10,135.9766 L84.4468,135.9766 L84.4468,143.2871 L74.4468,153.2871 L10,153.2871 L10,135.9766" fill="#EEEEEE" style="stroke:#000000;stroke-width:1.5;"/><rect fill="none" height="353.3711" style="stroke:#000000;stroke-width:1.5;" width="722.8726" x="10" y="135.9766"/><text fill="#000000" font-family="sans-serif" font-size="13" font-weight="bold" lengthAdjust="spacing" textLength="29.4468" x="25" y="149.5449">loop</text><text fill="#000000" font-family="sans-serif" font-size="11" font-weight="bold" lengthAdjust="spacing" textLength="99.8916" x="99.4468" y="148.6113">[per missing gap]</text><g class="message" data-entity-1="part2" data-entity-2="part2" id="msg1"><line style="stroke:#181818;stroke-width:1;" x1="180.6133" x2="222.6133" y1="174.5977" y2="174.5977"/><line style="stroke:#181818;stroke-width:1;" x1="222.6133" x2="222.6133" y1="174.5977" y2="187.5977"/><line style="stroke:#181818;stroke-width:1;" x1="181.6133" x2="222.6133" y1="187.5977" y2="187.5977"/><polygon fill="#181818" points="191.6133,183.5977,181.6133,187.5977,191.6133,191.5977,187.6133,187.5977" style="stroke:#181818;stroke-width:1;"/><text fill="#000000" font-family="sans-serif" font-size="13" lengthAdjust="spacing" textLength="100.4009" x="187.6133" y="169.8555">draft probe text</text></g><g class="message" data-entity-1="part2" data-entity-2="part3" id="msg2"><polygon fill="#181818" points="489.5542,212.9082,499.5542,216.9082,489.5542,220.9082,493.5542,216.9082" style="stroke:#181818;stroke-width:1;"/><line style="stroke:#181818;stroke-width:1;" x1="180.6133" x2="495.5542" y1="216.9082" y2="216.9082"/><text fill="#000000" font-family="sans-serif" font-size="13" lengthAdjust="spacing" textLength="71.2524" x="187.6133" y="212.166">assert(text)</text></g><path d="M20,231.9082 L82.1387,231.9082 L82.1387,239.2188 L72.1387,249.2188 L20,249.2188 L20,231.9082" fill="#EEEEEE" style="stroke:#000000;stroke-width:1.5;"/><rect fill="none" height="250.4395" style="stroke:#000000;stroke-width:1.5;" width="702.8726" x="20" y="231.9082"/><text fill="#000000" font-family="sans-serif" font-size="13" font-weight="bold" lengthAdjust="spacing" textLength="17.1387" x="35" y="245.4766">alt</text><text fill="#000000" font-family="sans-serif" font-size="11" font-weight="bold" lengthAdjust="spacing" textLength="114.3184" x="97.1387" y="244.543">[no solution tokens]</text><g class="message" data-entity-1="part3" data-entity-2="part2" id="msg3"><polygon fill="#181818" points="191.6133,266.5293,181.6133,270.5293,191.6133,274.5293,187.6133,270.5293" style="stroke:#181818;stroke-width:1;"/><line style="stroke:#181818;stroke-width:1;stroke-dasharray:2,2;" x1="185.6133" x2="500.5542" y1="270.5293" y2="270.5293"/><text fill="#000000" font-family="sans-serif" font-size="13" lengthAdjust="spacing" textLength="18.5859" x="197.6133" y="265.7871">OK</text></g><g class="message" data-entity-1="part2" data-entity-2="part4" id="msg4"><polygon fill="#181818" points="635.6646,295.8398,645.6646,299.8398,635.6646,303.8398,639.6646,299.8398" style="stroke:#181818;stroke-width:1;"/><line style="stroke:#181818;stroke-width:1;" x1="180.6133" x2="641.6646" y1="299.8398" y2="299.8398"/><text fill="#000000" font-family="sans-serif" font-size="13" lengthAdjust="spacing" textLength="153.4673" x="187.6133" y="295.0977">AskUserQuestion(probe)</text></g><g class="message" data-entity-1="part4" data-entity-2="part1" id="msg5"><polygon fill="#181818" points="73.5347,325.1504,63.5347,329.1504,73.5347,333.1504,69.5347,329.1504" style="stroke:#181818;stroke-width:1;"/><line style="stroke:#181818;stroke-width:1;" x1="67.5347" x2="646.6646" y1="329.1504" y2="329.1504"/><text fill="#000000" font-family="sans-serif" font-size="13" lengthAdjust="spacing" textLength="46.668" x="79.5347" y="324.4082">prompt</text></g><g class="message" data-entity-1="part1" data-entity-2="part4" id="msg6"><polygon fill="#181818" points="635.6646,354.4609,645.6646,358.4609,635.6646,362.4609,639.6646,358.4609" style="stroke:#181818;stroke-width:1;"/><line style="stroke:#181818;stroke-width:1;stroke-dasharray:2,2;" x1="62.5347" x2="641.6646" y1="358.4609" y2="358.4609"/><text fill="#000000" font-family="sans-serif" font-size="13" lengthAdjust="spacing" textLength="44.4526" x="69.5347" y="353.7188">answer</text></g><g class="message" data-entity-1="part4" data-entity-2="part2" id="msg7"><polygon fill="#181818" points="191.6133,383.7715,181.6133,387.7715,191.6133,391.7715,187.6133,387.7715" style="stroke:#181818;stroke-width:1;"/><line style="stroke:#181818;stroke-width:1;stroke-dasharray:2,2;" x1="185.6133" x2="646.6646" y1="387.7715" y2="387.7715"/><text fill="#000000" font-family="sans-serif" font-size="13" lengthAdjust="spacing" textLength="104.2603" x="197.6133" y="383.0293">answer captured</text></g><line style="stroke:#000000;stroke-width:1;stroke-dasharray:2,2;" x1="20" x2="722.8726" y1="396.7715" y2="396.7715"/><text fill="#000000" font-family="sans-serif" font-size="11" font-weight="bold" lengthAdjust="spacing" textLength="190.4912" x="25" y="407.4063">[solution-shaped token detected]</text><g class="message" data-entity-1="part3" data-entity-2="part2" id="msg8"><polygon fill="#181818" points="191.6133,428.0371,181.6133,432.0371,191.6133,436.0371,187.6133,432.0371" style="stroke:#181818;stroke-width:1;"/><line style="stroke:#181818;stroke-width:1;stroke-dasharray:2,2;" x1="185.6133" x2="500.5542" y1="432.0371" y2="432.0371"/><text fill="#000000" font-family="sans-serif" font-size="13" lengthAdjust="spacing" textLength="69.9131" x="197.6133" y="427.2949">VIOLATION</text></g><g class="message" data-entity-1="part2" data-entity-2="part2" id="msg9"><line style="stroke:#181818;stroke-width:1;" x1="180.6133" x2="222.6133" y1="461.3477" y2="461.3477"/><line style="stroke:#181818;stroke-width:1;" x1="222.6133" x2="222.6133" y1="461.3477" y2="474.3477"/><line style="stroke:#181818;stroke-width:1;" x1="181.6133" x2="222.6133" y1="474.3477" y2="474.3477"/><polygon fill="#181818" points="191.6133,470.3477,181.6133,474.3477,191.6133,478.3477,187.6133,474.3477" style="stroke:#181818;stroke-width:1;"/><text fill="#000000" font-family="sans-serif" font-size="13" lengthAdjust="spacing" textLength="306.9409" x="187.6133" y="456.6055">rewrite probe (test fails if reached in production)</text></g><g class="message" data-entity-1="part2" data-entity-2="part2" id="msg10"><line style="stroke:#181818;stroke-width:1;" x1="180.6133" x2="222.6133" y1="517.6582" y2="517.6582"/><line style="stroke:#181818;stroke-width:1;" x1="222.6133" x2="222.6133" y1="517.6582" y2="530.6582"/><line style="stroke:#181818;stroke-width:1;" x1="181.6133" x2="222.6133" y1="530.6582" y2="530.6582"/><polygon fill="#181818" points="191.6133,526.6582,181.6133,530.6582,191.6133,534.6582,187.6133,530.6582" style="stroke:#181818;stroke-width:1;"/><text fill="#000000" font-family="sans-serif" font-size="13" lengthAdjust="spacing" textLength="293.4141" x="187.6133" y="512.916">advance to Stage 3 after gaps closed or cap=5</text></g><?plantuml-src NL91JiCm4Bpd5QjoQG-v576f158H72eGLLJWlYJRrAfhMzvDov57y49Umjf9I-aXKRmpdXcF8qOimJrjS6zyXAif_7nzmqgm9PX2Oz3wjYFzuDe4QnmLM8iI7rsh2uf5m2X6CNG2goaWmsZOFOCG_GULrlim-iTxKBNC_9CjaPcYAlzdLfasv-sRebL7BCQxKL4aJGWKOMUOZMkXnL102b3UfVSCceXhwHE0qAUSq6m-WzvldA29OcW5d0VsjaiM87vBZXM0VaDvr5q-vM6lLUdW8jmuMquogKgSOrEG-zW5oT1fMWuowFYWTGxRZcxz56eCqaLg52RBT8fPyWO3DNrQQ4YebiowJFs-M3xFNnVBbxFm6OXqY4PeA4hhO84r6ijWrWfYlL5vunBUT7NoJ4SZrnJfEHF2Pe-krgxzyFTSWrw0PjUROQYjPnNo-IYtDxy0?></g></svg>