<?plantuml 1.2026.2?><svg xmlns="http://www.w3.org/2000/svg" xmlns:xlink="http://www.w3.org/1999/xlink" contentStyleType="text/css" data-diagram-type="SEQUENCE" height="862px" preserveAspectRatio="none" style="width:1147px;height:862px;background:#FFFFFF;" version="1.1" viewBox="0 0 1147 862" width="1147px" zoomAndPan="magnify"><title>Behavior #4 &#8212; /spec codesign mode Step 1.5</title><defs/><g><text fill="#000000" font-family="sans-serif" font-size="14" font-weight="bold" lengthAdjust="spacing" textLength="325.9922" x="406.8267" y="28.5352">Behavior #4 &#8212; /spec codesign mode Step 1.5</text><rect fill="none" height="369.6816" style="stroke:#000000;stroke-width:1.5;" width="960.0166" x="10" y="280.2188"/><rect fill="none" height="237.4395" style="stroke:#000000;stroke-width:1.5;" width="940.0166" x="20" y="405.4609"/><g class="participant-lifeline" data-entity-uid="part1" data-qualified-name="Engineer" id="part1-lifeline"><g><title>Engineer</title><rect fill="#000000" fill-opacity="0.00000" height="662.8555" width="8" x="58.5347" y="118.9766"/><line style="stroke:#181818;stroke-width:0.5;stroke-dasharray:5,5;" x1="62" x2="62" y1="118.9766" y2="781.832"/></g></g><g class="participant-lifeline" data-entity-uid="part2" data-qualified-name="Spec" id="part2-lifeline"><g><title>.spec</title><rect fill="#000000" fill-opacity="0.00000" height="662.8555" width="8" x="226.4614" y="118.9766"/><line style="stroke:#181818;stroke-width:0.5;stroke-dasharray:5,5;" x1="230.3311" x2="230.3311" y1="118.9766" y2="781.832"/></g></g><g class="participant-lifeline" data-entity-uid="part3" data-qualified-name="Finder" id="part3-lifeline"><g><title>decision-point-finder</title><rect fill="#000000" fill-opacity="0.00000" height="662.8555" width="8" x="548.249" y="118.9766"/><line style="stroke:#181818;stroke-width:0.5;stroke-dasharray:5,5;" x1="552.1953" x2="552.1953" y1="118.9766" y2="781.832"/></g></g><g class="participant-lifeline" data-entity-uid="part4" data-qualified-name="Q" id="part4-lifeline"><g><title>AskUserQuestion</title><rect fill="#000000" fill-opacity="0.00000" height="662.8555" width="8" x="704.5107" y="118.9766"/><line style="stroke:#181818;stroke-width:0.5;stroke-dasharray:5,5;" x1="708.3027" x2="708.3027" y1="118.9766" y2="781.832"/></g></g><g class="participant-lifeline" data-entity-uid="part5" data-qualified-name="CS" id="part5-lifeline"><g><title>codesign..slug..json</title><rect fill="#000000" fill-opacity="0.00000" height="662.8555" width="8" x="862.8677" y="118.9766"/><line style="stroke:#181818;stroke-width:0.5;stroke-dasharray:5,5;" x1="866.7188" x2="866.7188" y1="118.9766" y2="781.832"/></g></g><g class="participant-lifeline" data-entity-uid="part6" data-qualified-name="SpecDoc" id="part6-lifeline"><g><title>docs.specs..slug..md</title><rect fill="#000000" fill-opacity="0.00000" height="662.8555" width="8" x="1043.8311" y="118.9766"/><line style="stroke:#181818;stroke-width:0.5;stroke-dasharray:5,5;" x1="1047.0166" x2="1047.0166" y1="118.9766" y2="781.832"/></g></g><g class="participant participant-head" data-entity-uid="part1" data-qualified-name="Engineer" id="part1-head"><text fill="#000000" font-family="sans-serif" font-size="14" lengthAdjust="spacing" textLength="59.0693" x="30" y="116.0234">Engineer</text><ellipse cx="62.5347" cy="50.9883" fill="#E2E2F0" rx="8" ry="8" style="stroke:#181818;stroke-width:0.5;"/><path d="M62.5347,58.9883 L62.5347,85.9883 M49.5347,66.9883 L75.5347,66.9883 M62.5347,85.9883 L49.5347,100.9883 M62.5347,85.9883 L75.5347,100.9883" fill="none" style="stroke:#181818;stroke-width:0.5;"/></g><g class="participant participant-tail" data-entity-uid="part1" data-qualified-name="Engineer" id="part1-tail"><text fill="#000000" font-family="sans-serif" font-size="14" lengthAdjust="spacing" textLength="59.0693" x="30" y="794.3672">Engineer</text><ellipse cx="62.5347" cy="805.8203" fill="#E2E2F0" rx="8" ry="8" style="stroke:#181818;stroke-width:0.5;"/><path d="M62.5347,813.8203 L62.5347,840.8203 M49.5347,821.8203 L75.5347,821.8203 M62.5347,840.8203 L49.5347,855.8203 M62.5347,840.8203 L75.5347,855.8203" fill="none" style="stroke:#181818;stroke-width:0.5;"/></g><g class="participant participant-head" data-entity-uid="part2" data-qualified-name="Spec" id="part2-head"><rect fill="#E2E2F0" height="30.4883" rx="2.5" ry="2.5" style="stroke:#181818;stroke-width:0.5;" width="52.2607" x="204.3311" y="87.4883"/><text fill="#000000" font-family="sans-serif" font-size="14" lengthAdjust="spacing" textLength="38.2607" x="211.3311" y="108.0234">/spec</text></g><g class="participant participant-tail" data-entity-uid="part2" data-qualified-name="Spec" id="part2-tail"><rect fill="#E2E2F0" height="30.4883" rx="2.5" ry="2.5" style="stroke:#181818;stroke-width:0.5;" width="52.2607" x="204.3311" y="780.832"/><text fill="#000000" font-family="sans-serif" font-size="14" lengthAdjust="spacing" textLength="38.2607" x="211.3311" y="801.3672">/spec</text></g><g class="participant participant-head" data-entity-uid="part3" data-qualified-name="Finder" id="part3-head"><rect fill="#E2E2F0" height="30.4883" rx="2.5" ry="2.5" style="stroke:#181818;stroke-width:0.5;" width="162.1074" x="471.1953" y="87.4883"/><text fill="#000000" font-family="sans-serif" font-size="14" lengthAdjust="spacing" textLength="148.1074" x="478.1953" y="108.0234">decision-point-finder</text></g><g class="participant participant-tail" data-entity-uid="part3" data-qualified-name="Finder" id="part3-tail"><rect fill="#E2E2F0" height="30.4883" rx="2.5" ry="2.5" style="stroke:#181818;stroke-width:0.5;" width="162.1074" x="471.1953" y="780.832"/><text fill="#000000" font-family="sans-serif" font-size="14" lengthAdjust="spacing" textLength="148.1074" x="478.1953" y="801.3672">decision-point-finder</text></g><g class="participant participant-head" data-entity-uid="part4" data-qualified-name="Q" id="part4-head"><rect fill="#E2E2F0" height="30.4883" rx="2.5" ry="2.5" style="stroke:#181818;stroke-width:0.5;" width="130.416" x="643.3027" y="87.4883"/><text fill="#000000" font-family="sans-serif" font-size="14" lengthAdjust="spacing" textLength="116.416" x="650.3027" y="108.0234">AskUserQuestion</text></g><g class="participant participant-tail" data-entity-uid="part4" data-qualified-name="Q" id="part4-tail"><rect fill="#E2E2F0" height="30.4883" rx="2.5" ry="2.5" style="stroke:#181818;stroke-width:0.5;" width="130.416" x="643.3027" y="780.832"/><text fill="#000000" font-family="sans-serif" font-size="14" lengthAdjust="spacing" textLength="116.416" x="650.3027" y="801.3672">AskUserQuestion</text></g><g class="participant participant-head" data-entity-uid="part5" data-qualified-name="CS" id="part5-head"><rect fill="#E2E2F0" height="30.4883" rx="2.5" ry="2.5" style="stroke:#181818;stroke-width:0.5;" width="166.2979" x="783.7188" y="87.4883"/><text fill="#000000" font-family="sans-serif" font-size="14" lengthAdjust="spacing" textLength="152.2979" x="790.7188" y="108.0234">codesign/&lt;slug&gt;.json</text></g><g class="participant participant-tail" data-entity-uid="part5" data-qualified-name="CS" id="part5-tail"><rect fill="#E2E2F0" height="30.4883" rx="2.5" ry="2.5" style="stroke:#181818;stroke-width:0.5;" width="166.2979" x="783.7188" y="780.832"/><text fill="#000000" font-family="sans-serif" font-size="14" lengthAdjust="spacing" textLength="152.2979" x="790.7188" y="801.3672">codesign/&lt;slug&gt;.json</text></g><g class="participant participant-head" data-entity-uid="part6" data-qualified-name="SpecDoc" id="part6-head"><rect fill="#E2E2F0" height="30.4883" rx="2.5" ry="2.5" style="stroke:#181818;stroke-width:0.5;" width="175.6289" x="960.0166" y="87.4883"/><text fill="#000000" font-family="sans-serif" font-size="14" lengthAdjust="spacing" textLength="161.6289" x="967.0166" y="108.0234">docs/specs/&lt;slug&gt;.md</text></g><g class="participant participant-tail" data-entity-uid="part6" data-qualified-name="SpecDoc" id="part6-tail"><rect fill="#E2E2F0" height="30.4883" rx="2.5" ry="2.5" style="stroke:#181818;stroke-width:0.5;" width="175.6289" x="960.0166" y="780.832"/><text fill="#000000" font-family="sans-serif" font-size="14" lengthAdjust="spacing" textLength="161.6289" x="967.0166" y="801.3672">docs/specs/&lt;slug&gt;.md</text></g><g class="message" data-entity-1="part2" data-entity-2="part2" id="msg1"><line style="stroke:#181818;stroke-width:1;" x1="230.4614" x2="272.4614" y1="150.2871" y2="150.2871"/><line style="stroke:#181818;stroke-width:1;" x1="272.4614" x2="272.4614" y1="150.2871" y2="163.2871"/><line style="stroke:#181818;stroke-width:1;" x1="231.4614" x2="272.4614" y1="163.2871" y2="163.2871"/><polygon fill="#181818" points="241.4614,159.2871,231.4614,163.2871,241.4614,167.2871,237.4614,163.2871" style="stroke:#181818;stroke-width:1;"/><text fill="#000000" font-family="sans-serif" font-size="13" lengthAdjust="spacing" textLength="174.7637" x="237.4614" y="145.5449">read codesign_mode = true</text></g><g class="message" data-entity-1="part2" data-entity-2="part3" id="msg2"><polygon fill="#181818" points="540.249,188.5977,550.249,192.5977,540.249,196.5977,544.249,192.5977" style="stroke:#181818;stroke-width:1;"/><line style="stroke:#181818;stroke-width:1;" x1="230.4614" x2="546.249" y1="192.5977" y2="192.5977"/><text fill="#000000" font-family="sans-serif" font-size="13" lengthAdjust="spacing" textLength="297.7876" x="237.4614" y="187.8555">identify N decision points from research+scout</text></g><g class="message" data-entity-1="part3" data-entity-2="part2" id="msg3"><polygon fill="#181818" points="241.4614,217.9082,231.4614,221.9082,241.4614,225.9082,237.4614,221.9082" style="stroke:#181818;stroke-width:1;"/><line style="stroke:#181818;stroke-width:1;stroke-dasharray:2,2;" x1="235.4614" x2="551.249" y1="221.9082" y2="221.9082"/><text fill="#000000" font-family="sans-serif" font-size="13" lengthAdjust="spacing" textLength="114.0166" x="247.4614" y="217.166">decision list (1..N)</text></g><rect fill="#EEEEEE" height="3" style="stroke:#EEEEEE;stroke-width:1;" width="1140.6455" x="0" y="250.5635"/><line style="stroke:#000000;stroke-width:1;" x1="0" x2="1140.6455" y1="250.5635" y2="250.5635"/><line style="stroke:#000000;stroke-width:1;" x1="0" x2="1140.6455" y1="253.5635" y2="253.5635"/><rect fill="#EEEEEE" height="23.3105" style="stroke:#000000;stroke-width:2;" width="267.2461" x="436.6997" y="239.9082"/><text fill="#000000" font-family="sans-serif" font-size="13" font-weight="bold" lengthAdjust="spacing" textLength="248.9614" x="442.6997" y="256.4766">AC-005: identify &gt;= 1 decision point</text><path d="M10,280.2188 L84.4468,280.2188 L84.4468,287.5293 L74.4468,297.5293 L10,297.5293 L10,280.2188" fill="#EEEEEE" style="stroke:#000000;stroke-width:1.5;"/><rect fill="none" height="369.6816" style="stroke:#000000;stroke-width:1.5;" width="960.0166" x="10" y="280.2188"/><text fill="#000000" font-family="sans-serif" font-size="13" font-weight="bold" lengthAdjust="spacing" textLength="29.4468" x="25" y="293.7871">loop</text><text fill="#000000" font-family="sans-serif" font-size="11" font-weight="bold" lengthAdjust="spacing" textLength="110.9238" x="99.4468" y="292.8535">[per decision point]</text><g class="message" data-entity-1="part2" data-entity-2="part2" id="msg4"><line style="stroke:#181818;stroke-width:1;" x1="230.4614" x2="272.4614" y1="318.8398" y2="318.8398"/><line style="stroke:#181818;stroke-width:1;" x1="272.4614" x2="272.4614" y1="318.8398" y2="331.8398"/><line style="stroke:#181818;stroke-width:1;" x1="231.4614" x2="272.4614" y1="331.8398" y2="331.8398"/><polygon fill="#181818" points="241.4614,327.8398,231.4614,331.8398,241.4614,335.8398,237.4614,331.8398" style="stroke:#181818;stroke-width:1;"/><text fill="#000000" font-family="sans-serif" font-size="13" lengthAdjust="spacing" textLength="163.5664" x="237.4614" y="314.0977">draft proposal + rationale</text></g><g class="message" data-entity-1="part2" data-entity-2="part4" id="msg5"><polygon fill="#181818" points="696.5107,357.1504,706.5107,361.1504,696.5107,365.1504,700.5107,361.1504" style="stroke:#181818;stroke-width:1;"/><line style="stroke:#181818;stroke-width:1;" x1="230.4614" x2="702.5107" y1="361.1504" y2="361.1504"/><text fill="#000000" font-family="sans-serif" font-size="13" lengthAdjust="spacing" textLength="317.2813" x="237.4614" y="356.4082">AskUserQuestion(Approve / Suggest alt / Discuss)</text></g><g class="message" data-entity-1="part4" data-entity-2="part1" id="msg6"><polygon fill="#181818" points="73.5347,386.4609,63.5347,390.4609,73.5347,394.4609,69.5347,390.4609" style="stroke:#181818;stroke-width:1;"/><line style="stroke:#181818;stroke-width:1;" x1="67.5347" x2="707.5107" y1="390.4609" y2="390.4609"/><text fill="#000000" font-family="sans-serif" font-size="13" lengthAdjust="spacing" textLength="92.0283" x="79.5347" y="385.7188">show proposal</text></g><path d="M20,405.4609 L82.1387,405.4609 L82.1387,412.7715 L72.1387,422.7715 L20,422.7715 L20,405.4609" fill="#EEEEEE" style="stroke:#000000;stroke-width:1.5;"/><rect fill="none" height="237.4395" style="stroke:#000000;stroke-width:1.5;" width="940.0166" x="20" y="405.4609"/><text fill="#000000" font-family="sans-serif" font-size="13" font-weight="bold" lengthAdjust="spacing" textLength="17.1387" x="35" y="419.0293">alt</text><text fill="#000000" font-family="sans-serif" font-size="11" font-weight="bold" lengthAdjust="spacing" textLength="55.8271" x="97.1387" y="418.0957">[Approve]</text><g class="message" data-entity-1="part1" data-entity-2="part4" id="msg7"><polygon fill="#181818" points="696.5107,440.082,706.5107,444.082,696.5107,448.082,700.5107,444.082" style="stroke:#181818;stroke-width:1;"/><line style="stroke:#181818;stroke-width:1;stroke-dasharray:2,2;" x1="62.5347" x2="702.5107" y1="444.082" y2="444.082"/><text fill="#000000" font-family="sans-serif" font-size="13" lengthAdjust="spacing" textLength="52.6094" x="69.5347" y="439.3398">Approve</text></g><g class="message" data-entity-1="part2" data-entity-2="part5" id="msg8"><polygon fill="#181818" points="854.8677,469.3926,864.8677,473.3926,854.8677,477.3926,858.8677,473.3926" style="stroke:#181818;stroke-width:1;"/><line style="stroke:#181818;stroke-width:1;" x1="230.4614" x2="860.8677" y1="473.3926" y2="473.3926"/><text fill="#000000" font-family="sans-serif" font-size="13" lengthAdjust="spacing" textLength="258.5908" x="237.4614" y="468.6504">record chosen = Claude rec, no verbatim</text></g><line style="stroke:#000000;stroke-width:1;stroke-dasharray:2,2;" x1="20" x2="960.0166" y1="482.3926" y2="482.3926"/><text fill="#000000" font-family="sans-serif" font-size="11" font-weight="bold" lengthAdjust="spacing" textLength="117.5679" x="25" y="493.0273">[Suggest alternative]</text><g class="message" data-entity-1="part1" data-entity-2="part4" id="msg9"><polygon fill="#181818" points="696.5107,513.6582,706.5107,517.6582,696.5107,521.6582,700.5107,517.6582" style="stroke:#181818;stroke-width:1;"/><line style="stroke:#181818;stroke-width:1;stroke-dasharray:2,2;" x1="62.5347" x2="702.5107" y1="517.6582" y2="517.6582"/><text fill="#000000" font-family="sans-serif" font-size="13" lengthAdjust="spacing" textLength="120.3262" x="69.5347" y="512.916">Suggest alternative</text></g><g class="message" data-entity-1="part4" data-entity-2="part2" id="msg10"><polygon fill="#181818" points="241.4614,542.9688,231.4614,546.9688,241.4614,550.9688,237.4614,546.9688" style="stroke:#181818;stroke-width:1;"/><line style="stroke:#181818;stroke-width:1;stroke-dasharray:2,2;" x1="235.4614" x2="707.5107" y1="546.9688" y2="546.9688"/><text fill="#000000" font-family="sans-serif" font-size="13" lengthAdjust="spacing" textLength="92.7583" x="247.4614" y="542.2266">free-form turn</text></g><g class="message" data-entity-1="part2" data-entity-2="part1" id="msg11"><polygon fill="#181818" points="73.5347,572.2793,63.5347,576.2793,73.5347,580.2793,69.5347,576.2793" style="stroke:#181818;stroke-width:1;"/><line style="stroke:#181818;stroke-width:1;" x1="67.5347" x2="229.4614" y1="576.2793" y2="576.2793"/><text fill="#000000" font-family="sans-serif" font-size="13" lengthAdjust="spacing" textLength="104.7871" x="79.5347" y="571.5371">"what rationale?"</text></g><g class="message" data-entity-1="part1" data-entity-2="part2" id="msg12"><polygon fill="#181818" points="218.4614,601.5898,228.4614,605.5898,218.4614,609.5898,222.4614,605.5898" style="stroke:#181818;stroke-width:1;"/><line style="stroke:#181818;stroke-width:1;stroke-dasharray:2,2;" x1="62.5347" x2="224.4614" y1="605.5898" y2="605.5898"/><text fill="#000000" font-family="sans-serif" font-size="13" lengthAdjust="spacing" textLength="143.9268" x="69.5347" y="600.8477">verbatim rationale text</text></g><g class="message" data-entity-1="part2" data-entity-2="part5" id="msg13"><polygon fill="#181818" points="854.8677,630.9004,864.8677,634.9004,854.8677,638.9004,858.8677,634.9004" style="stroke:#181818;stroke-width:1;"/><line style="stroke:#181818;stroke-width:1;" x1="230.4614" x2="860.8677" y1="634.9004" y2="634.9004"/><text fill="#000000" font-family="sans-serif" font-size="13" lengthAdjust="spacing" textLength="346.106" x="237.4614" y="630.1582">record chosen = engineer pick, verbatim = blockquote</text></g><rect fill="#EEEEEE" height="3" style="stroke:#EEEEEE;stroke-width:1;" width="1140.6455" x="0" y="677.5557"/><line style="stroke:#000000;stroke-width:1;" x1="0" x2="1140.6455" y1="677.5557" y2="677.5557"/><line style="stroke:#000000;stroke-width:1;" x1="0" x2="1140.6455" y1="680.5557" y2="680.5557"/><rect fill="#EEEEEE" height="23.3105" style="stroke:#000000;stroke-width:2;" width="255.9536" x="442.3459" y="666.9004"/><text fill="#000000" font-family="sans-serif" font-size="13" font-weight="bold" lengthAdjust="spacing" textLength="237.6689" x="448.3459" y="683.4688">AC-006: write ## Decisions section</text><g class="message" data-entity-1="part2" data-entity-2="part6" id="msg14"><polygon fill="#181818" points="1035.8311,717.5215,1045.8311,721.5215,1035.8311,725.5215,1039.8311,721.5215" style="stroke:#181818;stroke-width:1;"/><line style="stroke:#181818;stroke-width:1;" x1="230.4614" x2="1041.8311" y1="721.5215" y2="721.5215"/><text fill="#000000" font-family="sans-serif" font-size="13" lengthAdjust="spacing" textLength="386.2676" x="237.4614" y="716.7793">write ## Decisions with N entries (verbatim where applicable)</text></g><g class="message" data-entity-1="part2" data-entity-2="part2" id="msg15"><line style="stroke:#181818;stroke-width:1;" x1="230.4614" x2="272.4614" y1="750.832" y2="750.832"/><line style="stroke:#181818;stroke-width:1;" x1="272.4614" x2="272.4614" y1="750.832" y2="763.832"/><line style="stroke:#181818;stroke-width:1;" x1="231.4614" x2="272.4614" y1="763.832" y2="763.832"/><polygon fill="#181818" points="241.4614,759.832,231.4614,763.832,241.4614,767.832,237.4614,763.832" style="stroke:#181818;stroke-width:1;"/><text fill="#000000" font-family="sans-serif" font-size="13" lengthAdjust="spacing" textLength="239.3701" x="237.4614" y="746.0898">proceed to Steps 2-5 (draft diagrams)</text></g><?plantuml-src XLJDZjem4BxdAKPm0Uq6bghqW1eg2krn9OJsN1bdahWujkjneBtr8Vg4VP9E0Wc1TjL3f2JppVVZcIIee14-OY6EodeOleNVFt_1b1nAa3P5Khc1aczW5z31R3AFX0oC_6HoPH1zv8GFIYedJ81TtIO81Wt1uARsMPaKVLDDKIfIriJEAXFYhAdSehSDS4M75qA_hP02usyXwrs3QLrEtvEkykNaAzq3QrSRUpQMMacDEMhnPJg8eiPul3m7M817aNRnlpJn4mY-mWvuIRC0bQ89Ali1pz36WYOMGUPjoLI4milYWQIjGdJfYwzQNPTM560qcqoUnr6Im6eTFptDUmBB16Pt6f0aaRRMWMFEsr84S1SgzI8BuBnrbeI61_2YFbIXiOVTCl3kr4Shnqr7X2digZpdbo1quAUD8baHZRbzM_UsAy4KLDXJ9yNrkk52mqzmXSQjPg_OUk41rwEGrlCm2ajeU0fhBIeU1xz-16FXY7xFCKfkH4tOTuZUSEKrmTU0s_viCeyOPzQN42flRiprmWvEXGZNq_mm-5lnmjUwlO8XuFVm_zJOaZab3uzNdWJssih3jyg6sZwQDAglTdtUBU3aLK0O3c5pMGy2GbchrylJNv7w4_ad_gH2mUlDQ-WL4emwzLE17a4ufvKKUutZ---8PoeHKmYs-NqGl8ddC3elOgf4xaL9upy0?></g></svg>