<?plantuml 1.2026.2?><svg xmlns="http://www.w3.org/2000/svg" xmlns:xlink="http://www.w3.org/1999/xlink" contentStyleType="text/css" data-diagram-type="SEQUENCE" height="544px" preserveAspectRatio="none" style="width:678px;height:544px;background:#FFFFFF;" version="1.1" viewBox="0 0 678 544" width="678px" zoomAndPan="magnify"><title>Behavior #6 &#8212; Default-on-missing field semantics</title><defs/><g><text fill="#000000" font-family="sans-serif" font-size="14" font-weight="bold" lengthAdjust="spacing" textLength="368.9766" x="153.509" y="28.5352">Behavior #6 &#8212; Default-on-missing field semantics</text><g class="participant-lifeline" data-entity-uid="part1" data-qualified-name="Engineer" id="part1-lifeline"><g><title>Engineer</title><rect fill="#000000" fill-opacity="0.00000" height="344.1055" width="8" x="33.5347" y="118.9766"/><line style="stroke:#181818;stroke-width:0.5;stroke-dasharray:5,5;" x1="37" x2="37" y1="118.9766" y2="463.082"/></g></g><g class="participant-lifeline" data-entity-uid="part2" data-qualified-name="Skill" id="part2-lifeline"><g><title>entry skill</title><rect fill="#000000" fill-opacity="0.00000" height="344.1055" width="8" x="295.1973" y="118.9766"/><line style="stroke:#181818;stroke-width:0.5;stroke-dasharray:5,5;" x1="298.8687" x2="298.8687" y1="118.9766" y2="463.082"/></g></g><g class="participant-lifeline" data-entity-uid="part3" data-qualified-name="WF" id="part3-lifeline"><g><title>workflow.json</title><rect fill="#000000" fill-opacity="0.00000" height="344.1055" width="8" x="507.6313" y="118.9766"/><line style="stroke:#181818;stroke-width:0.5;stroke-dasharray:5,5;" x1="511.1353" x2="511.1353" y1="118.9766" y2="463.082"/></g></g><g class="participant participant-head" data-entity-uid="part1" data-qualified-name="Engineer" id="part1-head"><text fill="#000000" font-family="sans-serif" font-size="14" lengthAdjust="spacing" textLength="59.0693" x="5" y="116.0234">Engineer</text><ellipse cx="37.5347" cy="50.9883" fill="#E2E2F0" rx="8" ry="8" style="stroke:#181818;stroke-width:0.5;"/><path d="M37.5347,58.9883 L37.5347,85.9883 M24.5347,66.9883 L50.5347,66.9883 M37.5347,85.9883 L24.5347,100.9883 M37.5347,85.9883 L50.5347,100.9883" fill="none" style="stroke:#181818;stroke-width:0.5;"/></g><g class="participant participant-tail" data-entity-uid="part1" data-qualified-name="Engineer" id="part1-tail"><text fill="#000000" font-family="sans-serif" font-size="14" lengthAdjust="spacing" textLength="59.0693" x="5" y="475.6172">Engineer</text><ellipse cx="37.5347" cy="487.0703" fill="#E2E2F0" rx="8" ry="8" style="stroke:#181818;stroke-width:0.5;"/><path d="M37.5347,495.0703 L37.5347,522.0703 M24.5347,503.0703 L50.5347,503.0703 M37.5347,522.0703 L24.5347,537.0703 M37.5347,522.0703 L50.5347,537.0703" fill="none" style="stroke:#181818;stroke-width:0.5;"/></g><g class="participant participant-head" data-entity-uid="part2" data-qualified-name="Skill" id="part2-head"><rect fill="#E2E2F0" height="30.4883" rx="2.5" ry="2.5" style="stroke:#181818;stroke-width:0.5;" width="80.6572" x="258.8687" y="87.4883"/><text fill="#000000" font-family="sans-serif" font-size="14" lengthAdjust="spacing" textLength="66.6572" x="265.8687" y="108.0234">entry skill</text></g><g class="participant participant-tail" data-entity-uid="part2" data-qualified-name="Skill" id="part2-tail"><rect fill="#E2E2F0" height="30.4883" rx="2.5" ry="2.5" style="stroke:#181818;stroke-width:0.5;" width="80.6572" x="258.8687" y="462.082"/><text fill="#000000" font-family="sans-serif" font-size="14" lengthAdjust="spacing" textLength="66.6572" x="265.8687" y="482.6172">entry skill</text></g><g class="participant participant-head" data-entity-uid="part3" data-qualified-name="WF" id="part3-head"><rect fill="#E2E2F0" height="30.4883" rx="2.5" ry="2.5" style="stroke:#181818;stroke-width:0.5;" width="108.9922" x="457.1353" y="87.4883"/><text fill="#000000" font-family="sans-serif" font-size="14" lengthAdjust="spacing" textLength="94.9922" x="464.1353" y="108.0234">workflow.json</text></g><g class="participant participant-tail" data-entity-uid="part3" data-qualified-name="WF" id="part3-tail"><rect fill="#E2E2F0" height="30.4883" rx="2.5" ry="2.5" style="stroke:#181818;stroke-width:0.5;" width="108.9922" x="457.1353" y="462.082"/><text fill="#000000" font-family="sans-serif" font-size="14" lengthAdjust="spacing" textLength="94.9922" x="464.1353" y="482.6172">workflow.json</text></g><g class="message" data-entity-1="part1" data-entity-2="part2" id="msg1"><polygon fill="#181818" points="287.1973,146.2871,297.1973,150.2871,287.1973,154.2871,291.1973,150.2871" style="stroke:#181818;stroke-width:1;"/><line style="stroke:#181818;stroke-width:1;" x1="37.5347" x2="293.1973" y1="150.2871" y2="150.2871"/><text fill="#000000" font-family="sans-serif" font-size="13" lengthAdjust="spacing" textLength="237.6626" x="44.5347" y="145.5449">invoke (legacy workflow.json present)</text></g><g class="message" data-entity-1="part2" data-entity-2="part3" id="msg2"><polygon fill="#181818" points="499.6313,175.5977,509.6313,179.5977,499.6313,183.5977,503.6313,179.5977" style="stroke:#181818;stroke-width:1;"/><line style="stroke:#181818;stroke-width:1;" x1="299.1973" x2="505.6313" y1="179.5977" y2="179.5977"/><text fill="#000000" font-family="sans-serif" font-size="13" lengthAdjust="spacing" textLength="134.1387" x="306.1973" y="174.8555">read skip_brainstorm</text></g><g class="message" data-entity-1="part3" data-entity-2="part2" id="msg3"><polygon fill="#181818" points="310.1973,204.9082,300.1973,208.9082,310.1973,212.9082,306.1973,208.9082" style="stroke:#181818;stroke-width:1;"/><line style="stroke:#181818;stroke-width:1;stroke-dasharray:2,2;" x1="304.1973" x2="510.6313" y1="208.9082" y2="208.9082"/><text fill="#000000" font-family="sans-serif" font-size="13" lengthAdjust="spacing" textLength="150.1538" x="316.1973" y="204.166">undefined (field absent)</text></g><g class="message" data-entity-1="part2" data-entity-2="part2" id="msg4"><line style="stroke:#181818;stroke-width:1;" x1="299.1973" x2="341.1973" y1="238.2188" y2="238.2188"/><line style="stroke:#181818;stroke-width:1;" x1="341.1973" x2="341.1973" y1="238.2188" y2="251.2188"/><line style="stroke:#181818;stroke-width:1;" x1="300.1973" x2="341.1973" y1="251.2188" y2="251.2188"/><polygon fill="#181818" points="310.1973,247.2188,300.1973,251.2188,310.1973,255.2188,306.1973,251.2188" style="stroke:#181818;stroke-width:1;"/><text fill="#000000" font-family="sans-serif" font-size="13" lengthAdjust="spacing" textLength="198.4341" x="306.1973" y="233.4766">default skip_brainstorm = false</text></g><g class="message" data-entity-1="part2" data-entity-2="part3" id="msg5"><polygon fill="#181818" points="499.6313,276.5293,509.6313,280.5293,499.6313,284.5293,503.6313,280.5293" style="stroke:#181818;stroke-width:1;"/><line style="stroke:#181818;stroke-width:1;" x1="299.1973" x2="505.6313" y1="280.5293" y2="280.5293"/><text fill="#000000" font-family="sans-serif" font-size="13" lengthAdjust="spacing" textLength="130.7109" x="306.1973" y="275.7871">read codesign_mode</text></g><g class="message" data-entity-1="part3" data-entity-2="part2" id="msg6"><polygon fill="#181818" points="310.1973,305.8398,300.1973,309.8398,310.1973,313.8398,306.1973,309.8398" style="stroke:#181818;stroke-width:1;"/><line style="stroke:#181818;stroke-width:1;stroke-dasharray:2,2;" x1="304.1973" x2="510.6313" y1="309.8398" y2="309.8398"/><text fill="#000000" font-family="sans-serif" font-size="13" lengthAdjust="spacing" textLength="150.1538" x="316.1973" y="305.0977">undefined (field absent)</text></g><g class="message" data-entity-1="part2" data-entity-2="part2" id="msg7"><line style="stroke:#181818;stroke-width:1;" x1="299.1973" x2="341.1973" y1="339.1504" y2="339.1504"/><line style="stroke:#181818;stroke-width:1;" x1="341.1973" x2="341.1973" y1="339.1504" y2="352.1504"/><line style="stroke:#181818;stroke-width:1;" x1="300.1973" x2="341.1973" y1="352.1504" y2="352.1504"/><polygon fill="#181818" points="310.1973,348.1504,300.1973,352.1504,310.1973,356.1504,306.1973,352.1504" style="stroke:#181818;stroke-width:1;"/><text fill="#000000" font-family="sans-serif" font-size="13" lengthAdjust="spacing" textLength="195.0063" x="306.1973" y="334.4082">default codesign_mode = false</text></g><path d="M304,365.1504 L304,405.1504 L671,405.1504 L671,375.1504 L661,365.1504 L304,365.1504" fill="#FEFFDD" style="stroke:#181818;stroke-width:0.5;"/><path d="M661,365.1504 L661,375.1504 L671,375.1504 L661,365.1504" fill="#FEFFDD" style="stroke:#181818;stroke-width:0.5;"/><text fill="#000000" font-family="sans-serif" font-size="13" lengthAdjust="spacing" textLength="166.2959" x="310" y="382.7188">No write to workflow.json.</text><text fill="#000000" font-family="sans-serif" font-size="13" lengthAdjust="spacing" textLength="346.9946" x="310" y="398.0293">Field-absent semantics: brainstorm fires; codesign off.</text><g class="message" data-entity-1="part2" data-entity-2="part2" id="msg8"><line style="stroke:#181818;stroke-width:1;" x1="299.1973" x2="341.1973" y1="432.082" y2="432.082"/><line style="stroke:#181818;stroke-width:1;" x1="341.1973" x2="341.1973" y1="432.082" y2="445.082"/><line style="stroke:#181818;stroke-width:1;" x1="300.1973" x2="341.1973" y1="445.082" y2="445.082"/><polygon fill="#181818" points="310.1973,441.082,300.1973,445.082,310.1973,449.082,306.1973,445.082" style="stroke:#181818;stroke-width:1;"/><text fill="#000000" font-family="sans-serif" font-size="13" lengthAdjust="spacing" textLength="136.4429" x="306.1973" y="427.3398">proceed with defaults</text></g><?plantuml-src fP4nKiCm44LxdUAFQKBXb1HXe618IXeAoenYhUmbikIHb7ZISGXEo4bOOnBYG4SdwV_zRtULEJl20pLwpo7YwWOVR-zu9AjtBfV1bosdnBw6PN86YLhjCrT9wIgBV-bhzaHHTJhACtUYuddBpa4d5EHpF20Dzs9YULbzwNs8M-j2FtzDmHTA7UDGtd-dBC1-7xQ4cQDQLmTCIj15IWAvLgDRoYHvWKZQ3DXklOcQVP9MMoLAUPQxyuQiq0ncusnwSn5rT9fn6vU1k8FLBj5Vx2eOIbpxTIk7_vCdSIUk3vaGkMuoWXrh5F0Kq4SM9OVfikOYhWPUEV9-FdE1iwaioqvlJqY9jdD5tc30_MwnYw4Y6QNdt1pxJPy0?></g></svg>