<?plantuml 1.2026.2?><svg xmlns="http://www.w3.org/2000/svg" xmlns:xlink="http://www.w3.org/1999/xlink" contentStyleType="text/css" data-diagram-type="SEQUENCE" height="851px" preserveAspectRatio="none" style="width:1127px;height:851px;background:#FFFFFF;" version="1.1" viewBox="0 0 1127 851" width="1127px" zoomAndPan="magnify"><title>Behavior #8 &#8212; /triage flag parsing + heuristic detection</title><defs/><g><text fill="#000000" font-family="sans-serif" font-size="14" font-weight="bold" lengthAdjust="spacing" textLength="406.1709" x="359.5564" y="28.5352">Behavior #8 &#8212; /triage flag parsing + heuristic detection</text><rect fill="none" height="251.1289" style="stroke:#000000;stroke-width:1.5;" width="709.1182" x="10" y="207.5977"/><rect fill="none" height="120.2422" style="stroke:#000000;stroke-width:1.5;" width="592.522" x="20" y="331.4844"/><rect fill="none" height="251.1289" style="stroke:#000000;stroke-width:1.5;" width="1061.7876" x="10" y="472.7266"/><rect fill="none" height="120.2422" style="stroke:#000000;stroke-width:1.5;" width="589.0942" x="20" y="596.6133"/><g class="participant-lifeline" data-entity-uid="part1" data-qualified-name="Engineer" id="part1-lifeline"><g><title>Engineer</title><rect fill="#000000" fill-opacity="0.00000" height="651.1895" width="8" x="58.5347" y="118.9766"/><line style="stroke:#181818;stroke-width:0.5;stroke-dasharray:5,5;" x1="62" x2="62" y1="118.9766" y2="770.166"/></g></g><g class="participant-lifeline" data-entity-uid="part2" data-qualified-name="Triage" id="part2-lifeline"><g><title>.triage</title><rect fill="#000000" fill-opacity="0.00000" height="651.1895" width="8" x="382.6328" y="118.9766"/><line style="stroke:#181818;stroke-width:0.5;stroke-dasharray:5,5;" x1="386.3257" x2="386.3257" y1="118.9766" y2="770.166"/></g></g><g class="participant-lifeline" data-entity-uid="part3" data-qualified-name="WF" id="part3-lifeline"><g><title>workflow.json</title><rect fill="#000000" fill-opacity="0.00000" height="651.1895" width="8" x="1062.7876" y="118.9766"/><line style="stroke:#181818;stroke-width:0.5;stroke-dasharray:5,5;" x1="1066.2915" x2="1066.2915" y1="118.9766" y2="770.166"/></g></g><g class="participant participant-head" data-entity-uid="part1" data-qualified-name="Engineer" id="part1-head"><text fill="#000000" font-family="sans-serif" font-size="14" lengthAdjust="spacing" textLength="59.0693" x="30" y="116.0234">Engineer</text><ellipse cx="62.5347" cy="50.9883" fill="#E2E2F0" rx="8" ry="8" style="stroke:#181818;stroke-width:0.5;"/><path d="M62.5347,58.9883 L62.5347,85.9883 M49.5347,66.9883 L75.5347,66.9883 M62.5347,85.9883 L49.5347,100.9883 M62.5347,85.9883 L75.5347,100.9883" fill="none" style="stroke:#181818;stroke-width:0.5;"/></g><g class="participant participant-tail" data-entity-uid="part1" data-qualified-name="Engineer" id="part1-tail"><text fill="#000000" font-family="sans-serif" font-size="14" lengthAdjust="spacing" textLength="59.0693" x="30" y="782.7012">Engineer</text><ellipse cx="62.5347" cy="794.1543" fill="#E2E2F0" rx="8" ry="8" style="stroke:#181818;stroke-width:0.5;"/><path d="M62.5347,802.1543 L62.5347,829.1543 M49.5347,810.1543 L75.5347,810.1543 M62.5347,829.1543 L49.5347,844.1543 M62.5347,829.1543 L75.5347,844.1543" fill="none" style="stroke:#181818;stroke-width:0.5;"/></g><g class="participant participant-head" data-entity-uid="part2" data-qualified-name="Triage" id="part2-head"><rect fill="#E2E2F0" height="30.4883" rx="2.5" ry="2.5" style="stroke:#181818;stroke-width:0.5;" width="60.6143" x="356.3257" y="87.4883"/><text fill="#000000" font-family="sans-serif" font-size="14" lengthAdjust="spacing" textLength="46.6143" x="363.3257" y="108.0234">/triage</text></g><g class="participant participant-tail" data-entity-uid="part2" data-qualified-name="Triage" id="part2-tail"><rect fill="#E2E2F0" height="30.4883" rx="2.5" ry="2.5" style="stroke:#181818;stroke-width:0.5;" width="60.6143" x="356.3257" y="769.166"/><text fill="#000000" font-family="sans-serif" font-size="14" lengthAdjust="spacing" textLength="46.6143" x="363.3257" y="789.7012">/triage</text></g><g class="participant participant-head" data-entity-uid="part3" data-qualified-name="WF" id="part3-head"><rect fill="#E2E2F0" height="30.4883" rx="2.5" ry="2.5" style="stroke:#181818;stroke-width:0.5;" width="108.9922" x="1012.2915" y="87.4883"/><text fill="#000000" font-family="sans-serif" font-size="14" lengthAdjust="spacing" textLength="94.9922" x="1019.2915" y="108.0234">workflow.json</text></g><g class="participant participant-tail" data-entity-uid="part3" data-qualified-name="WF" id="part3-tail"><rect fill="#E2E2F0" height="30.4883" rx="2.5" ry="2.5" style="stroke:#181818;stroke-width:0.5;" width="108.9922" x="1012.2915" y="769.166"/><text fill="#000000" font-family="sans-serif" font-size="14" lengthAdjust="spacing" textLength="94.9922" x="1019.2915" y="789.7012">workflow.json</text></g><g class="message" data-entity-1="part1" data-entity-2="part2" id="msg1"><polygon fill="#181818" points="374.6328,146.2871,384.6328,150.2871,374.6328,154.2871,378.6328,150.2871" style="stroke:#181818;stroke-width:1;"/><line style="stroke:#181818;stroke-width:1;" x1="62.5347" x2="380.6328" y1="150.2871" y2="150.2871"/><text fill="#000000" font-family="sans-serif" font-size="13" lengthAdjust="spacing" textLength="128.8066" x="69.5347" y="145.5449">/triage "&lt;request&gt; [</text><text fill="#000000" font-family="sans-serif" font-size="13" lengthAdjust="spacing" text-decoration="line-through" textLength="105.5806" x="198.3413" y="145.5449">no-brainstorm] [</text><text fill="#000000" font-family="sans-serif" font-size="13" lengthAdjust="spacing" textLength="65.7109" x="303.9219" y="145.5449">codesign]"</text></g><g class="message" data-entity-1="part2" data-entity-2="part2" id="msg2"><line style="stroke:#181818;stroke-width:1;" x1="386.6328" x2="428.6328" y1="179.5977" y2="179.5977"/><line style="stroke:#181818;stroke-width:1;" x1="428.6328" x2="428.6328" y1="179.5977" y2="192.5977"/><line style="stroke:#181818;stroke-width:1;" x1="387.6328" x2="428.6328" y1="192.5977" y2="192.5977"/><polygon fill="#181818" points="397.6328,188.5977,387.6328,192.5977,397.6328,196.5977,393.6328,192.5977" style="stroke:#181818;stroke-width:1;"/><text fill="#000000" font-family="sans-serif" font-size="13" lengthAdjust="spacing" textLength="240.3096" x="393.6328" y="174.8555">regex match flags from request string</text></g><path d="M10,207.5977 L72.1387,207.5977 L72.1387,214.9082 L62.1387,224.9082 L10,224.9082 L10,207.5977" fill="#EEEEEE" style="stroke:#000000;stroke-width:1.5;"/><rect fill="none" height="251.1289" style="stroke:#000000;stroke-width:1.5;" width="709.1182" x="10" y="207.5977"/><text fill="#000000" font-family="sans-serif" font-size="13" font-weight="bold" lengthAdjust="spacing" textLength="17.1387" x="25" y="221.166">alt</text><text fill="#000000" font-family="sans-serif" font-size="11" font-weight="bold" lengthAdjust="spacing" textLength="153.1138" x="87.1387" y="220.2324">[--no-brainstorm present]</text><g class="message" data-entity-1="part2" data-entity-2="part2" id="msg3"><line style="stroke:#181818;stroke-width:1;" x1="386.6328" x2="428.6328" y1="246.2188" y2="246.2188"/><line style="stroke:#181818;stroke-width:1;" x1="428.6328" x2="428.6328" y1="246.2188" y2="259.2188"/><line style="stroke:#181818;stroke-width:1;" x1="387.6328" x2="428.6328" y1="259.2188" y2="259.2188"/><polygon fill="#181818" points="397.6328,255.2188,387.6328,259.2188,397.6328,263.2188,393.6328,259.2188" style="stroke:#181818;stroke-width:1;"/><text fill="#000000" font-family="sans-serif" font-size="13" lengthAdjust="spacing" textLength="286.9902" x="393.6328" y="241.4766">skip_brainstorm = true (no AskUserQuestion)</text></g><line style="stroke:#000000;stroke-width:1;stroke-dasharray:2,2;" x1="10" x2="719.1182" y1="268.2188" y2="268.2188"/><text fill="#000000" font-family="sans-serif" font-size="11" font-weight="bold" lengthAdjust="spacing" textLength="148.1348" x="15" y="278.8535">[--no-brainstorm absent]</text><g class="message" data-entity-1="part2" data-entity-2="part2" id="msg4"><line style="stroke:#181818;stroke-width:1;" x1="386.6328" x2="428.6328" y1="303.4844" y2="303.4844"/><line style="stroke:#181818;stroke-width:1;" x1="428.6328" x2="428.6328" y1="303.4844" y2="316.4844"/><line style="stroke:#181818;stroke-width:1;" x1="387.6328" x2="428.6328" y1="316.4844" y2="316.4844"/><polygon fill="#181818" points="397.6328,312.4844,387.6328,316.4844,397.6328,320.4844,393.6328,316.4844" style="stroke:#181818;stroke-width:1;"/><text fill="#000000" font-family="sans-serif" font-size="13" lengthAdjust="spacing" textLength="313.4854" x="393.6328" y="298.7422">heuristic: actor+trigger+desired in one sentence?</text></g><path d="M20,331.4844 L82.1387,331.4844 L82.1387,338.7949 L72.1387,348.7949 L20,348.7949 L20,331.4844" fill="#EEEEEE" style="stroke:#000000;stroke-width:1.5;"/><rect fill="none" height="120.2422" style="stroke:#000000;stroke-width:1.5;" width="592.522" x="20" y="331.4844"/><text fill="#000000" font-family="sans-serif" font-size="13" font-weight="bold" lengthAdjust="spacing" textLength="17.1387" x="35" y="345.0527">alt</text><text fill="#000000" font-family="sans-serif" font-size="11" font-weight="bold" lengthAdjust="spacing" textLength="114.0874" x="97.1387" y="344.1191">[heuristic triggered]</text><g class="message" data-entity-1="part2" data-entity-2="part1" id="msg5"><polygon fill="#181818" points="73.5347,366.1055,63.5347,370.1055,73.5347,374.1055,69.5347,370.1055" style="stroke:#181818;stroke-width:1;"/><line style="stroke:#181818;stroke-width:1;" x1="67.5347" x2="385.6328" y1="370.1055" y2="370.1055"/><text fill="#000000" font-family="sans-serif" font-size="13" lengthAdjust="spacing" textLength="221.7554" x="79.5347" y="365.3633">AskUserQuestion(skip brainstorm?)</text></g><g class="message" data-entity-1="part1" data-entity-2="part2" id="msg6"><polygon fill="#181818" points="374.6328,395.416,384.6328,399.416,374.6328,403.416,378.6328,399.416" style="stroke:#181818;stroke-width:1;"/><line style="stroke:#181818;stroke-width:1;stroke-dasharray:2,2;" x1="62.5347" x2="380.6328" y1="399.416" y2="399.416"/><text fill="#000000" font-family="sans-serif" font-size="13" lengthAdjust="spacing" textLength="40.3711" x="69.5347" y="394.6738">choice</text></g><line style="stroke:#000000;stroke-width:1;stroke-dasharray:2,2;" x1="20" x2="612.522" y1="408.416" y2="408.416"/><g class="message" data-entity-1="part2" data-entity-2="part2" id="msg7"><line style="stroke:#181818;stroke-width:1;" x1="386.6328" x2="428.6328" y1="430.7266" y2="430.7266"/><line style="stroke:#181818;stroke-width:1;" x1="428.6328" x2="428.6328" y1="430.7266" y2="443.7266"/><line style="stroke:#181818;stroke-width:1;" x1="387.6328" x2="428.6328" y1="443.7266" y2="443.7266"/><polygon fill="#181818" points="397.6328,439.7266,387.6328,443.7266,397.6328,447.7266,393.6328,443.7266" style="stroke:#181818;stroke-width:1;"/><text fill="#000000" font-family="sans-serif" font-size="13" lengthAdjust="spacing" textLength="206.8892" x="393.6328" y="425.9844">skip_brainstorm = false (default)</text></g><path d="M10,472.7266 L72.1387,472.7266 L72.1387,480.0371 L62.1387,490.0371 L10,490.0371 L10,472.7266" fill="#EEEEEE" style="stroke:#000000;stroke-width:1.5;"/><rect fill="none" height="251.1289" style="stroke:#000000;stroke-width:1.5;" width="1061.7876" x="10" y="472.7266"/><text fill="#000000" font-family="sans-serif" font-size="13" font-weight="bold" lengthAdjust="spacing" textLength="17.1387" x="25" y="486.2949">alt</text><text fill="#000000" font-family="sans-serif" font-size="11" font-weight="bold" lengthAdjust="spacing" textLength="119.8022" x="87.1387" y="485.3613">[--codesign present]</text><g class="message" data-entity-1="part2" data-entity-2="part2" id="msg8"><line style="stroke:#181818;stroke-width:1;" x1="386.6328" x2="428.6328" y1="511.3477" y2="511.3477"/><line style="stroke:#181818;stroke-width:1;" x1="428.6328" x2="428.6328" y1="511.3477" y2="524.3477"/><line style="stroke:#181818;stroke-width:1;" x1="387.6328" x2="428.6328" y1="524.3477" y2="524.3477"/><polygon fill="#181818" points="397.6328,520.3477,387.6328,524.3477,397.6328,528.3477,393.6328,524.3477" style="stroke:#181818;stroke-width:1;"/><text fill="#000000" font-family="sans-serif" font-size="13" lengthAdjust="spacing" textLength="142.7271" x="393.6328" y="506.6055">codesign_mode = true</text></g><line style="stroke:#000000;stroke-width:1;stroke-dasharray:2,2;" x1="10" x2="1071.7876" y1="533.3477" y2="533.3477"/><text fill="#000000" font-family="sans-serif" font-size="11" font-weight="bold" lengthAdjust="spacing" textLength="114.8232" x="15" y="543.9824">[--codesign absent]</text><g class="message" data-entity-1="part2" data-entity-2="part2" id="msg9"><line style="stroke:#181818;stroke-width:1;" x1="386.6328" x2="428.6328" y1="568.6133" y2="568.6133"/><line style="stroke:#181818;stroke-width:1;" x1="428.6328" x2="428.6328" y1="568.6133" y2="581.6133"/><line style="stroke:#181818;stroke-width:1;" x1="387.6328" x2="428.6328" y1="581.6133" y2="581.6133"/><polygon fill="#181818" points="397.6328,577.6133,387.6328,581.6133,397.6328,585.6133,393.6328,581.6133" style="stroke:#181818;stroke-width:1;"/><text fill="#000000" font-family="sans-serif" font-size="13" lengthAdjust="spacing" textLength="666.1548" x="393.6328" y="563.8711">keyword match in request (CV / model / numerical / crypto / consensus / realtime / kernel / distributed)</text></g><path d="M20,596.6133 L82.1387,596.6133 L82.1387,603.9238 L72.1387,613.9238 L20,613.9238 L20,596.6133" fill="#EEEEEE" style="stroke:#000000;stroke-width:1.5;"/><rect fill="none" height="120.2422" style="stroke:#000000;stroke-width:1.5;" width="589.0942" x="20" y="596.6133"/><text fill="#000000" font-family="sans-serif" font-size="13" font-weight="bold" lengthAdjust="spacing" textLength="17.1387" x="35" y="610.1816">alt</text><text fill="#000000" font-family="sans-serif" font-size="11" font-weight="bold" lengthAdjust="spacing" textLength="108.8076" x="97.1387" y="609.248">[keyword matched]</text><g class="message" data-entity-1="part2" data-entity-2="part1" id="msg10"><polygon fill="#181818" points="73.5347,631.2344,63.5347,635.2344,73.5347,639.2344,69.5347,635.2344" style="stroke:#181818;stroke-width:1;"/><line style="stroke:#181818;stroke-width:1;" x1="67.5347" x2="385.6328" y1="635.2344" y2="635.2344"/><text fill="#000000" font-family="sans-serif" font-size="13" lengthAdjust="spacing" textLength="224.4531" x="79.5347" y="630.4922">AskUserQuestion(enable codesign?)</text></g><g class="message" data-entity-1="part1" data-entity-2="part2" id="msg11"><polygon fill="#181818" points="374.6328,660.5449,384.6328,664.5449,374.6328,668.5449,378.6328,664.5449" style="stroke:#181818;stroke-width:1;"/><line style="stroke:#181818;stroke-width:1;stroke-dasharray:2,2;" x1="62.5347" x2="380.6328" y1="664.5449" y2="664.5449"/><text fill="#000000" font-family="sans-serif" font-size="13" lengthAdjust="spacing" textLength="40.3711" x="69.5347" y="659.8027">choice</text></g><line style="stroke:#000000;stroke-width:1;stroke-dasharray:2,2;" x1="20" x2="609.0942" y1="673.5449" y2="673.5449"/><g class="message" data-entity-1="part2" data-entity-2="part2" id="msg12"><line style="stroke:#181818;stroke-width:1;" x1="386.6328" x2="428.6328" y1="695.8555" y2="695.8555"/><line style="stroke:#181818;stroke-width:1;" x1="428.6328" x2="428.6328" y1="695.8555" y2="708.8555"/><line style="stroke:#181818;stroke-width:1;" x1="387.6328" x2="428.6328" y1="708.8555" y2="708.8555"/><polygon fill="#181818" points="397.6328,704.8555,387.6328,708.8555,397.6328,712.8555,393.6328,708.8555" style="stroke:#181818;stroke-width:1;"/><text fill="#000000" font-family="sans-serif" font-size="13" lengthAdjust="spacing" textLength="203.4614" x="393.6328" y="691.1133">codesign_mode = false (default)</text></g><g class="message" data-entity-1="part2" data-entity-2="part3" id="msg13"><polygon fill="#181818" points="1054.7876,748.166,1064.7876,752.166,1054.7876,756.166,1058.7876,752.166" style="stroke:#181818;stroke-width:1;"/><line style="stroke:#181818;stroke-width:1;" x1="386.6328" x2="1060.7876" y1="752.166" y2="752.166"/><text fill="#000000" font-family="sans-serif" font-size="13" lengthAdjust="spacing" textLength="226.0083" x="393.6328" y="747.4238">write workflow.json with both fields</text></g><?plantuml-src fPFDRjH03CVlUGehN7QrslQALj0AAdglnCS1LTLanabC4a_mJ5Xwuo5uGfu4Jvhi5tGbn2695Oz_jl_sH8ejmbkipJVo0YzUmgyVF-4o2faAeMnD1RsHG5p12ceSX48a2muZsaYUCsEZnhtZYXXHCZsiVkeDHtZ_1341yWcO7_a_tOw-hPUcRFtsualmd6VPp8BrrOpOx2hANmb-7J34A_YyNhDV5sA8WzRGtQS_rZiCLF5zdasnXnJ12hz3PwAjnzu2bE8xc90GD0bNcMaZdB2X5mp8CGFu2pOqr3yS77uDKGQ41Nju4veF0UKkyLMkPOPjm3_efdWUlXDz0wFMAosogb1MgL511yJW6I4Ha2rUAoPri1_M581EFOSfTa9lJijSf8vWN-3rSWpTJ-QmG5jxigW7KcidASv8L9ganC9XQOOsfWJ8BalFa_xp9CzBFvzwwDIOX9yrtX7EoTlWeowWcvP2jPoNON7p4IuXOLlzyj2Xa3N9jlBOHvyCpmeEGr1RKCkc3jLiK7WCSfGsgXWYkkKqbQDq_p8HP5FeJPrx-l-9d2ht_3psmNfZDx0LYWX7jnQs56ielBvAmjQ5tm00?></g></svg>