<?plantuml 1.2026.2?><svg xmlns="http://www.w3.org/2000/svg" xmlns:xlink="http://www.w3.org/1999/xlink" contentStyleType="text/css" data-diagram-type="STATE" height="804px" preserveAspectRatio="none" style="width:491px;height:804px;background:#FFFFFF;" version="1.1" viewBox="0 0 491 804" width="491px" zoomAndPan="magnify"><title>State &#8212; brainstorm dialogue</title><defs/><g><g class="title" data-source-line="1"><text fill="#000000" font-family="sans-serif" font-size="14" font-weight="bold" lengthAdjust="spacing" textLength="205.8984" x="135.5723" y="23.5352">State &#8212; brainstorm dialogue</text></g><g class="start_entity" data-qualified-name=".start." data-source-line="2" id="ent0002"><ellipse cx="133" cy="53.4883" fill="#222222" rx="10" ry="10" style="stroke:#222222;stroke-width:1;"/></g><g class="entity" data-qualified-name="Stage0" id="ent0003"><rect fill="#F1F1F1" height="50" rx="12.5" ry="12.5" style="stroke:#181818;stroke-width:0.5;" width="65.8896" x="100.06" y="124.4883"/><line style="stroke:#181818;stroke-width:0.5;" x1="100.06" x2="165.9496" y1="150.9766" y2="150.9766"/><text fill="#000000" font-family="sans-serif" font-size="14" lengthAdjust="spacing" textLength="45.8896" x="110.06" y="143.0234">Stage0</text></g><g class="entity" data-qualified-name="Skipped" id="ent0005"><rect fill="#F1F1F1" height="50" rx="12.5" ry="12.5" style="stroke:#181818;stroke-width:0.5;" width="74.0039" x="7" y="331.4883"/><line style="stroke:#181818;stroke-width:0.5;" x1="7" x2="81.0039" y1="357.9766" y2="357.9766"/><text fill="#000000" font-family="sans-serif" font-size="14" lengthAdjust="spacing" textLength="54.0039" x="17" y="350.0234">Skipped</text></g><g class="end_entity" data-qualified-name=".end." data-source-line="4" id="ent0007"><ellipse cx="164" cy="787.4883" fill="none" rx="11" ry="11" style="stroke:#222222;stroke-width:1;"/><ellipse cx="164" cy="787.4883" fill="#222222" rx="6" ry="6" style="stroke:#222222;stroke-width:1;"/></g><g class="entity" data-qualified-name="Stage1" id="ent0009"><rect fill="#F1F1F1" height="50" rx="12.5" ry="12.5" style="stroke:#181818;stroke-width:0.5;" width="65.8896" x="190.06" y="251.4883"/><line style="stroke:#181818;stroke-width:0.5;" x1="190.06" x2="255.9496" y1="277.9766" y2="277.9766"/><text fill="#000000" font-family="sans-serif" font-size="14" lengthAdjust="spacing" textLength="45.8896" x="200.06" y="270.0234">Stage1</text></g><g class="entity" data-qualified-name="Stage2" id="ent0011"><rect fill="#F1F1F1" height="50" rx="12.5" ry="12.5" style="stroke:#181818;stroke-width:0.5;" width="65.8896" x="157.06" y="411.4883"/><line style="stroke:#181818;stroke-width:0.5;" x1="157.06" x2="222.9496" y1="437.9766" y2="437.9766"/><text fill="#000000" font-family="sans-serif" font-size="14" lengthAdjust="spacing" textLength="45.8896" x="167.06" y="430.0234">Stage2</text></g><g class="entity" data-qualified-name="Stage3" id="ent0014"><rect fill="#F1F1F1" height="50" rx="12.5" ry="12.5" style="stroke:#181818;stroke-width:0.5;" width="65.8896" x="267.06" y="538.4883"/><line style="stroke:#181818;stroke-width:0.5;" x1="267.06" x2="332.9496" y1="564.9766" y2="564.9766"/><text fill="#000000" font-family="sans-serif" font-size="14" lengthAdjust="spacing" textLength="45.8896" x="277.06" y="557.0234">Stage3</text></g><g class="entity" data-qualified-name="Confirmed" id="ent0016"><rect fill="#F1F1F1" height="50" rx="12.5" ry="12.5" style="stroke:#181818;stroke-width:0.5;" width="91.5791" x="118.21" y="665.4883"/><line style="stroke:#181818;stroke-width:0.5;" x1="118.21" x2="209.7891" y1="691.9766" y2="691.9766"/><text fill="#000000" font-family="sans-serif" font-size="14" lengthAdjust="spacing" textLength="71.5791" x="128.21" y="684.0234">Confirmed</text></g><g class="entity" data-qualified-name="NeedsHuman" id="ent0020"><rect fill="#F1F1F1" height="50" rx="12.5" ry="12.5" style="stroke:#181818;stroke-width:0.5;" width="110.3574" x="244.82" y="665.4883"/><line style="stroke:#181818;stroke-width:0.5;" x1="244.82" x2="355.1774" y1="691.9766" y2="691.9766"/><text fill="#000000" font-family="sans-serif" font-size="14" lengthAdjust="spacing" textLength="90.3574" x="254.82" y="684.0234">NeedsHuman</text></g><!--link *start* to Stage0--><g class="link" data-entity-1="ent0002" data-entity-2="ent0003" data-link-type="dependency" data-source-line="2" id="lnk4"><path d="M133,63.8483 C133,77.7783 133,98.4383 133,118.1383" fill="none" id="*start*-to-Stage0" style="stroke:#181818;stroke-width:1;"/><polygon fill="#181818" points="133,124.1383,137,115.1383,133,119.1383,129,115.1383,133,124.1383" style="stroke:#181818;stroke-width:1;"/></g><!--link Stage0 to Skipped--><g class="link" data-entity-1="ent0003" data-entity-2="ent0005" data-link-type="dependency" data-source-line="3" id="lnk6"><path d="M99.58,159.6383 C77.57,167.5983 50.42,181.5483 37,204.4883 C13.95,243.9083 23.7011,293.7649 33.4411,325.3349" fill="none" id="Stage0-to-Skipped" style="stroke:#181818;stroke-width:1;"/><polygon fill="#181818" points="35.21,331.0683,36.3789,321.289,33.736,326.2905,28.7345,323.6475,35.21,331.0683" style="stroke:#181818;stroke-width:1;"/><text fill="#000000" font-family="sans-serif" font-size="13" lengthAdjust="spacing" textLength="137.9282" x="38" y="218.0566">skip_brainstorm=true</text></g><!--link Skipped to *end*--><g class="link" data-entity-1="ent0005" data-entity-2="ent0007" data-link-type="dependency" data-source-line="4" id="lnk8"><path d="M44,381.7783 C44,409.9583 44,457.8383 44,498.9883 C44,498.9883 44,498.9883 44,691.4883 C44,747.0183 118.2155,773.5339 147.5855,782.0139" fill="none" id="Skipped-to-*end*" style="stroke:#181818;stroke-width:1;"/><polygon fill="#181818" points="153.35,783.6783,145.8128,777.3387,148.5462,782.2913,143.5936,785.0247,153.35,783.6783" style="stroke:#181818;stroke-width:1;"/></g><!--link Stage0 to Stage1--><g class="link" data-entity-1="ent0003" data-entity-2="ent0009" data-link-type="dependency" data-source-line="5" id="lnk10"><path d="M158.54,174.8683 C167.16,183.7583 176.49,194.1683 184,204.4883 C194.68,219.1483 201.8046,231.7078 208.9246,245.8678" fill="none" id="Stage0-to-Stage1" style="stroke:#181818;stroke-width:1;"/><polygon fill="#181818" points="211.62,251.2283,211.1506,241.3906,209.3738,246.7612,204.0033,244.9845,211.62,251.2283" style="stroke:#181818;stroke-width:1;"/><text fill="#000000" font-family="sans-serif" font-size="13" lengthAdjust="spacing" textLength="142.0225" x="196.03" y="218.0566">skip_brainstorm=false</text></g><!--link Stage1 to Stage2--><g class="link" data-entity-1="ent0009" data-entity-2="ent0011" data-link-type="dependency" data-source-line="6" id="lnk12"><path d="M217.92,301.8283 C211.72,331.5183 202.528,375.5453 196.318,405.2453" fill="none" id="Stage1-to-Stage2" style="stroke:#181818;stroke-width:1;"/><polygon fill="#181818" points="195.09,411.1183,200.8473,403.1275,196.1133,406.2241,193.0167,401.4901,195.09,411.1183" style="stroke:#181818;stroke-width:1;"/><text fill="#000000" font-family="sans-serif" font-size="13" lengthAdjust="spacing" textLength="94.0405" x="212.39" y="361.5566">gaps identified</text></g><!--link Stage2 to Stage2--><g class="link" data-entity-1="ent0011" data-entity-2="ent0011" data-link-type="dependency" data-source-line="7" id="lnk13"><path d="M223.21,425.1083 C241.34,423.0883 257.95,426.8783 257.95,436.4883 C257.95,446.0983 247.3031,450.5527 229.1731,448.5327" fill="none" id="Stage2-to-Stage2" style="stroke:#181818;stroke-width:1;"/><polygon fill="#181818" points="223.21,447.8683,231.7117,452.8403,228.1793,448.4219,232.5976,444.8895,223.21,447.8683" style="stroke:#181818;stroke-width:1;"/><text fill="#000000" font-family="sans-serif" font-size="13" lengthAdjust="spacing" textLength="147.2021" x="263.95" y="441.5566">probe iteration (cap=5)</text></g><!--link Stage2 to Stage3--><g class="link" data-entity-1="ent0011" data-entity-2="ent0014" data-link-type="dependency" data-source-line="8" id="lnk15"><path d="M156.66,447.8583 C123.03,460.0783 78.76,482.0883 99,508.4883 C119.34,535.0083 209.3051,550.5867 260.9451,557.6367" fill="none" id="Stage2-to-Stage3" style="stroke:#181818;stroke-width:1;"/><polygon fill="#181818" points="266.89,558.4483,258.5138,553.2676,261.936,557.7719,257.4316,561.1941,266.89,558.4483" style="stroke:#181818;stroke-width:1;"/><text fill="#000000" font-family="sans-serif" font-size="13" lengthAdjust="spacing" textLength="177.2329" x="100" y="505.0566">gaps closed OR cap reached</text></g><!--link Stage3 to Stage2--><g class="link" data-entity-1="ent0014" data-entity-2="ent0011" data-link-type="dependency" data-source-line="10" id="lnk18"><path d="M298.52,538.0983 C296.55,523.3683 292.08,504.9083 282,491.4883 C267.21,471.7883 248.4555,460.3964 228.5555,451.6764" fill="none" id="Stage3-to-Stage2" style="stroke:#181818;stroke-width:1;"/><polygon fill="#181818" points="223.06,449.2683,229.6979,456.5441,227.6396,451.275,232.9087,449.2167,223.06,449.2683" style="stroke:#181818;stroke-width:1;"/><text fill="#000000" font-family="sans-serif" font-size="13" lengthAdjust="spacing" textLength="124.9409" x="291.64" y="505.0566">Edit specific section</text></g><!--link Stage3 to Confirmed--><g class="link" data-entity-1="ent0014" data-entity-2="ent0016" data-link-type="dependency" data-source-line="9" id="lnk17"><path d="M273.46,588.8883 C249.49,610.9083 218.8379,639.0884 194.8979,661.0884" fill="none" id="Stage3-to-Confirmed" style="stroke:#181818;stroke-width:1;"/><polygon fill="#181818" points="190.48,665.1483,199.8134,662.0037,194.1616,661.7651,194.4002,656.1132,190.48,665.1483" style="stroke:#181818;stroke-width:1;"/><text fill="#000000" font-family="sans-serif" font-size="13" lengthAdjust="spacing" textLength="21.9692" x="241.14" y="632.0566">Yes</text></g><!--link Stage3 to Stage1--><g class="link" data-entity-1="ent0014" data-entity-2="ent0009" data-link-type="dependency" data-source-line="11" id="lnk19"><path d="M333.33,558.2583 C363.03,552.5283 404.81,539.2083 425,508.4883 C448.76,472.3383 437.84,449.3983 417,411.4883 C381.9,347.6383 307.3852,310.0407 261.8452,291.6907" fill="none" id="Stage3-to-Stage1" style="stroke:#181818;stroke-width:1;"/><polygon fill="#181818" points="256.28,289.4483,263.1328,296.5221,260.9177,291.317,266.1228,289.1018,256.28,289.4483" style="stroke:#181818;stroke-width:1;"/><text fill="#000000" font-family="sans-serif" font-size="13" lengthAdjust="spacing" textLength="44.313" x="438.73" y="441.5566">Restart</text></g><!--link Stage3 to NeedsHuman--><g class="link" data-entity-1="ent0014" data-entity-2="ent0020" data-link-type="dependency" data-source-line="12" id="lnk21"><path d="M300,588.8883 C300,610.9083 300,637.1483 300,659.1483" fill="none" id="Stage3-to-NeedsHuman" style="stroke:#181818;stroke-width:1;"/><polygon fill="#181818" points="300,665.1483,304,656.1483,300,660.1483,296,656.1483,300,665.1483" style="stroke:#181818;stroke-width:1;"/><text fill="#000000" font-family="sans-serif" font-size="13" lengthAdjust="spacing" textLength="169.9204" x="301" y="632.0566">5 confirm-cycles divergent</text></g><!--link Confirmed to *end*--><g class="link" data-entity-1="ent0016" data-entity-2="ent0007" data-link-type="dependency" data-source-line="13" id="lnk22"><path d="M164,715.9483 C164,735.5283 164,755.9783 164,770.2883" fill="none" id="Confirmed-to-*end*" style="stroke:#181818;stroke-width:1;"/><polygon fill="#181818" points="164,776.2883,168,767.2883,164,771.2883,160,767.2883,164,776.2883" style="stroke:#181818;stroke-width:1;"/></g><!--link NeedsHuman to *end*--><g class="link" data-entity-1="ent0020" data-entity-2="ent0007" data-link-type="dependency" data-source-line="14" id="lnk23"><path d="M264.98,715.9483 C233.97,737.6183 195.8088,764.2724 177.5988,776.9924" fill="none" id="NeedsHuman-to-*end*" style="stroke:#181818;stroke-width:1;"/><polygon fill="#181818" points="172.68,780.4283,182.3488,778.5537,176.779,777.565,177.7676,771.9953,172.68,780.4283" style="stroke:#181818;stroke-width:1;"/></g><?plantuml-src RP7FIWCn4CRlUOevgh2Wbbw4UX71Kmlr92AI9hFRmTqaPAQ2Dn_29_H9d7Htsotrb66-tpV_8YGjmhDOGVZz_e5DjXHOOkx0asrZiqFpUlK6LNLVg0QlJV_qcGzA2JtS0MlqVZGl9Ajnb0kgHKwS9RpvnrZRbj4Cye6yLRAnYO4y1g6Qq9j1E65IZXi44inMA0QuS3OjvfTdx6oivzh8Ek5g3Kf2HkksO-dP7d-8eQRSxPTyGPvAXwwFdWGueTF1732wqlkCBDkkaSLccMfBHCzFkyu6rUVW-dwL-t8jidx29-P6TpR7GSPpJfn3wWy0?></g></svg>