<?plantuml 1.2026.2?><svg xmlns="http://www.w3.org/2000/svg" xmlns:xlink="http://www.w3.org/1999/xlink" contentStyleType="text/css" data-diagram-type="DESCRIPTION" height="661px" preserveAspectRatio="none" style="width:884px;height:661px;background:#FFFFFF;" version="1.1" viewBox="0 0 884 661" width="884px" zoomAndPan="magnify"><title>Dependencies &#8212; paired collaborative-drafting modes</title><defs/><g><g class="title" data-source-line="2"><text fill="#000000" font-family="sans-serif" font-size="14" font-weight="bold" lengthAdjust="spacing" textLength="387.5977" x="241.4477" y="23.5352">Dependencies &#8212; paired collaborative-drafting modes</text></g><!--entity triage--><g class="entity" data-qualified-name="triage" data-source-line="4" id="ent0002"><rect fill="#F1F1F1" height="46.4883" rx="2.5" ry="2.5" style="stroke:#181818;stroke-width:0.5;" width="79.2725" x="457.82" y="124.4883"/><rect fill="#F1F1F1" height="10" style="stroke:#181818;stroke-width:0.5;" width="15" x="517.0925" y="129.4883"/><rect fill="#F1F1F1" height="2" style="stroke:#181818;stroke-width:0.5;" width="4" x="515.0925" y="131.4883"/><rect fill="#F1F1F1" height="2" style="stroke:#181818;stroke-width:0.5;" width="4" x="515.0925" y="135.4883"/><text fill="#000000" font-family="sans-serif" font-size="14" lengthAdjust="spacing" textLength="39.2725" x="472.82" y="158.0234">triage</text></g><!--entity workflow.json--><g class="entity" data-qualified-name="workflow.json" data-source-line="4" id="ent0003"><rect fill="#F1F1F1" height="46.4883" rx="2.5" ry="2.5" style="stroke:#181818;stroke-width:0.5;" width="134.9922" x="701.69" y="124.4883"/><rect fill="#F1F1F1" height="10" style="stroke:#181818;stroke-width:0.5;" width="15" x="816.6822" y="129.4883"/><rect fill="#F1F1F1" height="2" style="stroke:#181818;stroke-width:0.5;" width="4" x="814.6822" y="131.4883"/><rect fill="#F1F1F1" height="2" style="stroke:#181818;stroke-width:0.5;" width="4" x="814.6822" y="135.4883"/><text fill="#000000" font-family="sans-serif" font-size="14" lengthAdjust="spacing" textLength="94.9922" x="716.69" y="158.0234">workflow.json</text></g><!--entity intake--><g class="entity" data-qualified-name="intake" data-source-line="5" id="ent0005"><rect fill="#F1F1F1" height="46.4883" rx="2.5" ry="2.5" style="stroke:#181818;stroke-width:0.5;" width="81.6855" x="209.07" y="206.4883"/><rect fill="#F1F1F1" height="10" style="stroke:#181818;stroke-width:0.5;" width="15" x="270.7555" y="211.4883"/><rect fill="#F1F1F1" height="2" style="stroke:#181818;stroke-width:0.5;" width="4" x="268.7555" y="213.4883"/><rect fill="#F1F1F1" height="2" style="stroke:#181818;stroke-width:0.5;" width="4" x="268.7555" y="217.4883"/><text fill="#000000" font-family="sans-serif" font-size="14" lengthAdjust="spacing" textLength="41.6855" x="224.07" y="240.0234">intake</text></g><!--entity brainstorm--><g class="entity" data-qualified-name="brainstorm" data-source-line="5" id="ent0006"><rect fill="#F1F1F1" height="46.4883" rx="2.5" ry="2.5" style="stroke:#181818;stroke-width:0.5;" width="114.7783" x="440.07" y="205.4883"/><rect fill="#F1F1F1" height="10" style="stroke:#181818;stroke-width:0.5;" width="15" x="534.8483" y="210.4883"/><rect fill="#F1F1F1" height="2" style="stroke:#181818;stroke-width:0.5;" width="4" x="532.8483" y="212.4883"/><rect fill="#F1F1F1" height="2" style="stroke:#181818;stroke-width:0.5;" width="4" x="532.8483" y="216.4883"/><text fill="#000000" font-family="sans-serif" font-size="14" lengthAdjust="spacing" textLength="74.7783" x="455.07" y="239.0234">brainstorm</text></g><!--entity spec--><g class="entity" data-qualified-name="spec" data-source-line="6" id="ent0008"><rect fill="#F1F1F1" height="46.4883" rx="2.5" ry="2.5" style="stroke:#181818;stroke-width:0.5;" width="70.9189" x="214.45" y="288.4883"/><rect fill="#F1F1F1" height="10" style="stroke:#181818;stroke-width:0.5;" width="15" x="265.3689" y="293.4883"/><rect fill="#F1F1F1" height="2" style="stroke:#181818;stroke-width:0.5;" width="4" x="263.3689" y="295.4883"/><rect fill="#F1F1F1" height="2" style="stroke:#181818;stroke-width:0.5;" width="4" x="263.3689" y="299.4883"/><text fill="#000000" font-family="sans-serif" font-size="14" lengthAdjust="spacing" textLength="30.9189" x="229.45" y="322.0234">spec</text></g><!--entity tdd--><g class="entity" data-qualified-name="tdd" data-source-line="7" id="ent0010"><rect fill="#F1F1F1" height="46.4883" rx="2.5" ry="2.5" style="stroke:#181818;stroke-width:0.5;" width="62.8594" x="218.48" y="125.4883"/><rect fill="#F1F1F1" height="10" style="stroke:#181818;stroke-width:0.5;" width="15" x="261.3394" y="130.4883"/><rect fill="#F1F1F1" height="2" style="stroke:#181818;stroke-width:0.5;" width="4" x="259.3394" y="132.4883"/><rect fill="#F1F1F1" height="2" style="stroke:#181818;stroke-width:0.5;" width="4" x="259.3394" y="136.4883"/><text fill="#000000" font-family="sans-serif" font-size="14" lengthAdjust="spacing" textLength="22.8594" x="233.48" y="159.0234">tdd</text></g><!--entity .claude/state/brainstorm/--><g class="entity" data-qualified-name=".claude.state.brainstorm." data-source-line="9" id="ent0013"><rect fill="#F1F1F1" height="46.4883" rx="2.5" ry="2.5" style="stroke:#181818;stroke-width:0.5;" width="218.623" x="659.87" y="205.4883"/><rect fill="#F1F1F1" height="10" style="stroke:#181818;stroke-width:0.5;" width="15" x="858.493" y="210.4883"/><rect fill="#F1F1F1" height="2" style="stroke:#181818;stroke-width:0.5;" width="4" x="856.493" y="212.4883"/><rect fill="#F1F1F1" height="2" style="stroke:#181818;stroke-width:0.5;" width="4" x="856.493" y="216.4883"/><text fill="#000000" font-family="sans-serif" font-size="14" lengthAdjust="spacing" textLength="178.623" x="674.87" y="239.0234">.claude/state/brainstorm/</text></g><!--entity docs/brief/--><g class="entity" data-qualified-name="docs.brief." data-source-line="10" id="ent0015"><rect fill="#F1F1F1" height="46.4883" rx="2.5" ry="2.5" style="stroke:#181818;stroke-width:0.5;" width="117.9365" x="710.21" y="367.4883"/><rect fill="#F1F1F1" height="10" style="stroke:#181818;stroke-width:0.5;" width="15" x="808.1465" y="372.4883"/><rect fill="#F1F1F1" height="2" style="stroke:#181818;stroke-width:0.5;" width="4" x="806.1465" y="374.4883"/><rect fill="#F1F1F1" height="2" style="stroke:#181818;stroke-width:0.5;" width="4" x="806.1465" y="378.4883"/><text fill="#000000" font-family="sans-serif" font-size="14" lengthAdjust="spacing" textLength="77.9365" x="725.21" y="401.0234">docs/brief/</text></g><!--entity .claude/state/codesign/--><g class="entity" data-qualified-name=".claude.state.codesign." data-source-line="11" id="ent0017"><rect fill="#F1F1F1" height="46.4883" rx="2.5" ry="2.5" style="stroke:#181818;stroke-width:0.5;" width="204.8281" x="395.04" y="367.4883"/><rect fill="#F1F1F1" height="10" style="stroke:#181818;stroke-width:0.5;" width="15" x="579.8681" y="372.4883"/><rect fill="#F1F1F1" height="2" style="stroke:#181818;stroke-width:0.5;" width="4" x="577.8681" y="374.4883"/><rect fill="#F1F1F1" height="2" style="stroke:#181818;stroke-width:0.5;" width="4" x="577.8681" y="378.4883"/><text fill="#000000" font-family="sans-serif" font-size="14" lengthAdjust="spacing" textLength="164.8281" x="410.04" y="401.0234">.claude/state/codesign/</text></g><!--entity docs/specs/--><g class="entity" data-qualified-name="docs.specs." data-source-line="12" id="ent0019"><rect fill="#F1F1F1" height="46.4883" rx="2.5" ry="2.5" style="stroke:#181818;stroke-width:0.5;" width="124.458" x="435.23" y="286.4883"/><rect fill="#F1F1F1" height="10" style="stroke:#181818;stroke-width:0.5;" width="15" x="539.688" y="291.4883"/><rect fill="#F1F1F1" height="2" style="stroke:#181818;stroke-width:0.5;" width="4" x="537.688" y="293.4883"/><rect fill="#F1F1F1" height="2" style="stroke:#181818;stroke-width:0.5;" width="4" x="537.688" y="297.4883"/><text fill="#000000" font-family="sans-serif" font-size="14" lengthAdjust="spacing" textLength="84.458" x="450.23" y="320.0234">docs/specs/</text></g><!--entity research--><g class="entity" data-qualified-name="research" data-source-line="13" id="ent0021"><rect fill="#F1F1F1" height="46.4883" rx="2.5" ry="2.5" style="stroke:#181818;stroke-width:0.5;" width="97.7842" x="7" y="44.4883"/><rect fill="#F1F1F1" height="10" style="stroke:#181818;stroke-width:0.5;" width="15" x="84.7842" y="49.4883"/><rect fill="#F1F1F1" height="2" style="stroke:#181818;stroke-width:0.5;" width="4" x="82.7842" y="51.4883"/><rect fill="#F1F1F1" height="2" style="stroke:#181818;stroke-width:0.5;" width="4" x="82.7842" y="55.4883"/><text fill="#000000" font-family="sans-serif" font-size="14" lengthAdjust="spacing" textLength="57.7842" x="22" y="78.0234">research</text></g><!--entity docs/research/--><g class="entity" data-qualified-name="docs.research." data-source-line="13" id="ent0022"><rect fill="#F1F1F1" height="46.4883" rx="2.5" ry="2.5" style="stroke:#181818;stroke-width:0.5;" width="144.1865" x="177.82" y="44.4883"/><rect fill="#F1F1F1" height="10" style="stroke:#181818;stroke-width:0.5;" width="15" x="302.0065" y="49.4883"/><rect fill="#F1F1F1" height="2" style="stroke:#181818;stroke-width:0.5;" width="4" x="300.0065" y="51.4883"/><rect fill="#F1F1F1" height="2" style="stroke:#181818;stroke-width:0.5;" width="4" x="300.0065" y="55.4883"/><text fill="#000000" font-family="sans-serif" font-size="14" lengthAdjust="spacing" textLength="104.1865" x="192.82" y="78.0234">docs/research/</text></g><!--entity harness--><g class="entity" data-qualified-name="harness" data-source-line="14" id="ent0024"><rect fill="#F1F1F1" height="46.4883" rx="2.5" ry="2.5" style="stroke:#181818;stroke-width:0.5;" width="92.9102" x="9.44" y="328.4883"/><rect fill="#F1F1F1" height="10" style="stroke:#181818;stroke-width:0.5;" width="15" x="82.3502" y="333.4883"/><rect fill="#F1F1F1" height="2" style="stroke:#181818;stroke-width:0.5;" width="4" x="80.3502" y="335.4883"/><rect fill="#F1F1F1" height="2" style="stroke:#181818;stroke-width:0.5;" width="4" x="80.3502" y="339.4883"/><text fill="#000000" font-family="sans-serif" font-size="14" lengthAdjust="spacing" textLength="52.9102" x="24.44" y="362.0234">harness</text></g><!--entity archive--><g class="entity" data-qualified-name="archive" data-source-line="16" id="ent0027"><rect fill="#F1F1F1" height="46.4883" rx="2.5" ry="2.5" style="stroke:#181818;stroke-width:0.5;" width="88.4121" x="205.71" y="447.4883"/><rect fill="#F1F1F1" height="10" style="stroke:#181818;stroke-width:0.5;" width="15" x="274.1221" y="452.4883"/><rect fill="#F1F1F1" height="2" style="stroke:#181818;stroke-width:0.5;" width="4" x="272.1221" y="454.4883"/><rect fill="#F1F1F1" height="2" style="stroke:#181818;stroke-width:0.5;" width="4" x="272.1221" y="458.4883"/><text fill="#000000" font-family="sans-serif" font-size="14" lengthAdjust="spacing" textLength="48.4121" x="220.71" y="481.0234">archive</text></g><!--entity archive.sh--><g class="entity" data-qualified-name="archive.sh" data-source-line="16" id="ent0028"><rect fill="#F1F1F1" height="46.4883" rx="2.5" ry="2.5" style="stroke:#181818;stroke-width:0.5;" width="108.667" x="443.12" y="448.4883"/><rect fill="#F1F1F1" height="10" style="stroke:#181818;stroke-width:0.5;" width="15" x="531.787" y="453.4883"/><rect fill="#F1F1F1" height="2" style="stroke:#181818;stroke-width:0.5;" width="4" x="529.787" y="455.4883"/><rect fill="#F1F1F1" height="2" style="stroke:#181818;stroke-width:0.5;" width="4" x="529.787" y="459.4883"/><text fill="#000000" font-family="sans-serif" font-size="14" lengthAdjust="spacing" textLength="68.667" x="458.12" y="482.0234">archive.sh</text></g><!--entity audit-baseline--><g class="entity" data-qualified-name="audit-baseline" data-source-line="18" id="ent0031"><rect fill="#F1F1F1" height="46.4883" rx="2.5" ry="2.5" style="stroke:#181818;stroke-width:0.5;" width="138.6768" x="180.58" y="609.4883"/><rect fill="#F1F1F1" height="10" style="stroke:#181818;stroke-width:0.5;" width="15" x="299.2568" y="614.4883"/><rect fill="#F1F1F1" height="2" style="stroke:#181818;stroke-width:0.5;" width="4" x="297.2568" y="616.4883"/><rect fill="#F1F1F1" height="2" style="stroke:#181818;stroke-width:0.5;" width="4" x="297.2568" y="620.4883"/><text fill="#000000" font-family="sans-serif" font-size="14" lengthAdjust="spacing" textLength="98.6768" x="195.58" y="643.0234">audit-baseline</text></g><!--entity manifest.json--><g class="entity" data-qualified-name="manifest.json" data-source-line="18" id="ent0032"><rect fill="#F1F1F1" height="46.4883" rx="2.5" ry="2.5" style="stroke:#181818;stroke-width:0.5;" width="131.9707" x="431.47" y="568.4883"/><rect fill="#F1F1F1" height="10" style="stroke:#181818;stroke-width:0.5;" width="15" x="543.4407" y="573.4883"/><rect fill="#F1F1F1" height="2" style="stroke:#181818;stroke-width:0.5;" width="4" x="541.4407" y="575.4883"/><rect fill="#F1F1F1" height="2" style="stroke:#181818;stroke-width:0.5;" width="4" x="541.4407" y="579.4883"/><text fill="#000000" font-family="sans-serif" font-size="14" lengthAdjust="spacing" textLength="91.9707" x="446.47" y="602.0234">manifest.json</text></g><!--entity build-manifest.mjs--><g class="entity" data-qualified-name="build-manifest.mjs" data-source-line="19" id="ent0034"><rect fill="#F1F1F1" height="46.4883" rx="2.5" ry="2.5" style="stroke:#181818;stroke-width:0.5;" width="170.2588" x="164.78" y="528.4883"/><rect fill="#F1F1F1" height="10" style="stroke:#181818;stroke-width:0.5;" width="15" x="315.0388" y="533.4883"/><rect fill="#F1F1F1" height="2" style="stroke:#181818;stroke-width:0.5;" width="4" x="313.0388" y="535.4883"/><rect fill="#F1F1F1" height="2" style="stroke:#181818;stroke-width:0.5;" width="4" x="313.0388" y="539.4883"/><text fill="#000000" font-family="sans-serif" font-size="14" lengthAdjust="spacing" textLength="130.2588" x="179.78" y="562.0234">build-manifest.mjs</text></g><!--link triage to workflow.json--><g class="link" data-entity-1="ent0002" data-entity-2="ent0003" data-link-type="dependency" data-source-line="4" id="lnk4"><path d="M537.39,147.7383 C580.21,147.7383 643.78,147.7383 695.35,147.7383" fill="none" id="triage-to-workflow.json" style="stroke:#181818;stroke-width:1;"/><polygon fill="#181818" points="701.35,147.7383,692.35,143.7383,696.35,147.7383,692.35,151.7383,701.35,147.7383" style="stroke:#181818;stroke-width:1;"/></g><!--link intake to brainstorm--><g class="link" data-entity-1="ent0005" data-entity-2="ent0006" data-link-type="dependency" data-source-line="5" id="lnk7"><path d="M291.19,229.5683 C331.59,229.4083 388.19,229.172 433.64,228.992" fill="none" id="intake-to-brainstorm" style="stroke:#181818;stroke-width:1;"/><polygon fill="#181818" points="439.64,228.9683,430.6242,225.004,434.64,228.9881,430.6559,233.0039,439.64,228.9683" style="stroke:#181818;stroke-width:1;"/></g><!--link spec to brainstorm--><g class="link" data-entity-1="ent0008" data-entity-2="ent0006" data-link-type="dependency" data-source-line="6" id="lnk9"><path d="M285.83,299.9283 C325.95,286.3683 386.6661,265.85 434.1961,249.78" fill="none" id="spec-to-brainstorm" style="stroke:#181818;stroke-width:1;"/><polygon fill="#181818" points="439.88,247.8583,430.073,246.9516,435.1434,249.4597,432.6353,254.5302,439.88,247.8583" style="stroke:#181818;stroke-width:1;"/></g><!--link tdd to brainstorm--><g class="link" data-entity-1="ent0010" data-entity-2="ent0006" data-link-type="dependency" data-source-line="7" id="lnk11"><path d="M281.52,158.7083 C320.98,171.5683 384.6952,192.3195 433.9552,208.3695" fill="none" id="tdd-to-brainstorm" style="stroke:#181818;stroke-width:1;"/><polygon fill="#181818" points="439.66,210.2283,432.3419,203.6369,434.906,208.6793,429.8636,211.2434,439.66,210.2283" style="stroke:#181818;stroke-width:1;"/></g><!--link brainstorm to workflow.json--><g class="link" data-entity-1="ent0006" data-entity-2="ent0003" data-link-type="dependency" data-source-line="8" id="lnk12"><path d="M555.33,211.6583 C597.99,198.8483 650.7636,182.9942 695.6436,169.5142" fill="none" id="brainstorm-to-workflow.json" style="stroke:#181818;stroke-width:1;"/><polygon fill="#181818" points="701.39,167.7883,691.6198,166.5463,696.6013,169.2266,693.9211,174.2082,701.39,167.7883" style="stroke:#181818;stroke-width:1;"/></g><!--link brainstorm to .claude/state/brainstorm/--><g class="link" data-entity-1="ent0006" data-entity-2="ent0013" data-link-type="dependency" data-source-line="9" id="lnk14"><path d="M555.33,228.7383 C585.62,228.7383 617.92,228.7383 653.64,228.7383" fill="none" id="brainstorm-to-.claude/state/brainstorm/" style="stroke:#181818;stroke-width:1;"/><polygon fill="#181818" points="659.64,228.7383,650.64,224.7383,654.64,228.7383,650.64,232.7383,659.64,228.7383" style="stroke:#181818;stroke-width:1;"/></g><!--link brainstorm to docs/brief/--><g class="link" data-entity-1="ent0006" data-entity-2="ent0015" data-link-type="dependency" data-source-line="10" id="lnk16"><path d="M555.14,248.1883 C570.03,254.0783 585.85,261.0483 599.87,268.7383 C652.56,297.6183 703.2723,336.7315 735.5323,363.2115" fill="none" id="brainstorm-to-docs/brief/" style="stroke:#181818;stroke-width:1;"/><polygon fill="#181818" points="740.17,367.0183,735.7513,358.2163,736.3052,363.846,730.6756,364.3999,740.17,367.0183" style="stroke:#181818;stroke-width:1;"/></g><!--link spec to .claude/state/codesign/--><g class="link" data-entity-1="ent0008" data-entity-2="ent0017" data-link-type="dependency" data-source-line="11" id="lnk18"><path d="M285.83,322.9683 C321.32,334.3883 371.6482,350.5811 417.0082,365.1711" fill="none" id="spec-to-.claude/state/codesign/" style="stroke:#181818;stroke-width:1;"/><polygon fill="#181818" points="422.72,367.0083,415.3771,360.4446,417.9602,365.4773,412.9275,368.0604,422.72,367.0083" style="stroke:#181818;stroke-width:1;"/></g><!--link spec to docs/specs/--><g class="link" data-entity-1="ent0008" data-entity-2="ent0019" data-link-type="dependency" data-source-line="12" id="lnk20"><path d="M285.83,311.4483 C324.63,311.1383 382.0002,310.6667 429.1102,310.2867" fill="none" id="spec-to-docs/specs/" style="stroke:#181818;stroke-width:1;"/><polygon fill="#181818" points="435.11,310.2383,426.078,306.311,430.1102,310.2786,426.1426,314.3107,435.11,310.2383" style="stroke:#181818;stroke-width:1;"/></g><!--link research to docs/research/--><g class="link" data-entity-1="ent0021" data-entity-2="ent0022" data-link-type="dependency" data-source-line="13" id="lnk23"><path d="M104.85,67.7383 C126.85,67.7383 147.37,67.7383 171.64,67.7383" fill="none" id="research-to-docs/research/" style="stroke:#181818;stroke-width:1;"/><polygon fill="#181818" points="177.64,67.7383,168.64,63.7383,172.64,67.7383,168.64,71.7383,177.64,67.7383" style="stroke:#181818;stroke-width:1;"/></g><!--link harness to .claude/state/codesign/--><g class="link" data-entity-1="ent0024" data-entity-2="ent0017" data-link-type="dependency" data-source-line="14" id="lnk25"><path d="M102.69,355.7983 C171.29,361.8883 296.5334,372.9984 388.5734,381.1584" fill="none" id="harness-to-.claude/state/codesign/" style="stroke:#181818;stroke-width:1;"/><polygon fill="#181818" points="394.55,381.6883,385.9384,376.9091,389.5695,381.2467,385.2319,384.8779,394.55,381.6883" style="stroke:#181818;stroke-width:1;"/></g><!--link harness to spec--><g class="link" data-entity-1="ent0024" data-entity-2="ent0008" data-link-type="dependency" data-source-line="15" id="lnk26"><path d="M102.4,342.2583 C136.67,335.1183 177.0661,326.7019 208.3661,320.1819" fill="none" id="harness-to-spec" style="stroke:#181818;stroke-width:1;"/><polygon fill="#181818" points="214.24,318.9583,204.6134,316.8777,209.3451,319.9779,206.2448,324.7096,214.24,318.9583" style="stroke:#181818;stroke-width:1;"/></g><!--link archive to archive.sh--><g class="link" data-entity-1="ent0027" data-entity-2="ent0028" data-link-type="dependency" data-source-line="16" id="lnk29"><path d="M294.53,470.9083 C336.01,471.0783 392.51,471.314 436.97,471.494" fill="none" id="archive-to-archive.sh" style="stroke:#181818;stroke-width:1;"/><polygon fill="#181818" points="442.97,471.5183,433.9863,467.4819,437.97,471.498,433.9539,475.4818,442.97,471.5183" style="stroke:#181818;stroke-width:1;"/></g><!--link archive.sh to docs/brief/--><g class="link" data-entity-1="ent0028" data-entity-2="ent0015" data-link-type="dependency" data-source-line="17" id="lnk30"><path d="M552.07,455.6383 C597.7,441.9283 657.3635,424.0138 704.2535,409.9338" fill="none" id="archive.sh-to-docs/brief/" style="stroke:#181818;stroke-width:1;"/><polygon fill="#181818" points="710,408.2083,700.2299,406.9656,705.2112,409.6462,702.5306,414.6276,710,408.2083" style="stroke:#181818;stroke-width:1;"/></g><!--link audit-baseline to manifest.json--><g class="link" data-entity-1="ent0031" data-entity-2="ent0032" data-link-type="dependency" data-source-line="18" id="lnk33"><path d="M319.64,621.2583 C354.54,615.4283 390.8021,609.3772 425.2121,603.6272" fill="none" id="audit-baseline-to-manifest.json" style="stroke:#181818;stroke-width:1;"/><polygon fill="#181818" points="431.13,602.6383,421.5938,600.1763,426.1984,603.4624,422.9124,608.0669,431.13,602.6383" style="stroke:#181818;stroke-width:1;"/></g><!--link build-manifest.mjs to brainstorm--><g class="link" data-entity-1="ent0034" data-entity-2="ent0006" data-link-type="dependency" data-source-line="19" id="lnk35"><path d="M316.32,528.1583 C323.35,523.5583 329.83,518.1283 335.04,511.7383 C405.38,425.5483 321.81,352.4683 395.04,268.7383 C406.69,255.4183 417.7191,248.533 434.1891,242.563" fill="none" id="build-manifest.mjs-to-brainstorm" style="stroke:#181818;stroke-width:1;"/><polygon fill="#181818" points="439.83,240.5183,430.0056,239.8247,435.1293,242.2222,432.7318,247.3459,439.83,240.5183" style="stroke:#181818;stroke-width:1;"/></g><!--link build-manifest.mjs to manifest.json--><g class="link" data-entity-1="ent0034" data-entity-2="ent0032" data-link-type="dependency" data-source-line="20" id="lnk36"><path d="M335.42,565.4983 C366.77,570.6083 395.8979,575.3545 425.2679,580.1345" fill="none" id="build-manifest.mjs-to-manifest.json" style="stroke:#181818;stroke-width:1;"/><polygon fill="#181818" points="431.19,581.0983,422.9494,575.7045,426.2549,580.2951,421.6643,583.6006,431.19,581.0983" style="stroke:#181818;stroke-width:1;"/></g><?plantuml-src XL5BKiCm3Dtd5DwnSd83XWMto7IXs4gYnh4paag77OVWX9o4kDEq3PXX-JvwpvQUpCj4qHkF2qQFqRtRWM4PAoKDQ5utcb3CryUdMO0OlN4f1EWIWz8RMi_GAyN1pCcZL05xDPeCqp2gyUk0KqgnQfK91ZmOQvzDUquyzI6TwwEaUAXQYWhJ9dOC54KJpwiY2xeIhzwNw0TGRlfbg5s0ayT651IRkzoKp3uvMJs4VRD_spx5vLNG47-OBjCPInOO1O7T-2XkNDP7u8WY_nRiVPUwgiqXwtMkv1NLCjwb34gVMbj8RGU2WU8MC4Ea7aLlMpnHyFR6paSf7kClrpxk6m00?></g></svg>